<?xml version="1.0" encoding="UTF-8"?>
<svg id="Capa_1" data-name="Capa 1" xmlns="http://www.w3.org/2000/svg" version="1.1" xmlns:xlink="http://www.w3.org/1999/xlink" viewBox="0 0 1920 177">
  <defs>
    <style>
      .cls-1 {
        fill: url(#Degradado_sin_nombre_4);
      }

      .cls-1, .cls-2 {
        stroke-width: 0px;
      }

      .cls-2 {
        fill: #fff;
      }
    </style>
    <linearGradient id="Degradado_sin_nombre_4" data-name="Degradado sin nombre 4" x1="0" y1="88.5" x2="1920" y2="88.5" gradientUnits="userSpaceOnUse">
      <stop offset="0" stop-color="#ba272d"/>
      <stop offset=".13" stop-color="#b4262f"/>
      <stop offset=".29" stop-color="#a32535"/>
      <stop offset=".47" stop-color="#872340"/>
      <stop offset=".67" stop-color="#60214e"/>
      <stop offset=".89" stop-color="#2f1e60"/>
      <stop offset="1" stop-color="#121d6c"/>
    </linearGradient>
  </defs>
  <rect class="cls-1" width="1920" height="177"/>
  <g>
    <path class="cls-2" d="M306.39,107.51l-8.28-.14c-.94-.02-1.66-.25-2.17-.7-.51-.45-.86-1.04-1.04-1.76l-1.78-10.5-19.19-.33-4.69,10.38c-.33.64-.83,1.19-1.51,1.66-.67.47-1.44.7-2.31.68l-8.43-.15,26.74-53.2,10.94.19,11.71,53.87ZM291.88,86.95l-2.88-17.03c-.16-.89-.34-1.94-.54-3.15s-.39-2.52-.56-3.93c-.57,1.4-1.12,2.69-1.66,3.89-.54,1.2-1.01,2.25-1.42,3.16l-7.58,16.81,14.64.26Z"/>
    <path class="cls-2" d="M311.27,106.63l5.29-38.07,5.25.09c1.06.02,1.88.29,2.46.82.58.53.86,1.36.84,2.49l-.17,3.25c1.72-2.36,3.54-4.1,5.45-5.23,1.92-1.12,3.92-1.67,6.02-1.63,2.24.04,4.05.81,5.41,2.31s2.17,3.67,2.42,6.51c1.8-2.95,3.76-5.11,5.86-6.48,2.11-1.37,4.43-2.03,6.97-1.99,1.6.03,3.02.37,4.25,1.04,1.23.66,2.24,1.62,3.02,2.86.78,1.25,1.3,2.77,1.57,4.58.26,1.8.23,3.86-.11,6.17l-3.27,24.17-10.06-.18,3.27-24.17c.34-2.29.3-3.91-.12-4.87-.42-.96-1.21-1.45-2.4-1.47-.86-.01-1.7.2-2.51.64-.81.44-1.58,1.09-2.31,1.94s-1.41,1.88-2.05,3.09c-.64,1.21-1.19,2.59-1.66,4.13l-2.8,20.51-10.06-.18,3.31-24.17c.31-2.29.28-3.91-.1-4.87-.38-.96-1.17-1.44-2.38-1.46-.89-.02-1.74.21-2.56.68-.82.47-1.6,1.14-2.35,2.01-.74.88-1.43,1.94-2.05,3.2-.63,1.26-1.17,2.67-1.65,4.24l-2.79,20.18-10.02-.17Z"/>
    <path class="cls-2" d="M385,76.63c1.84-2.53,3.89-4.52,6.13-5.98,2.24-1.45,4.64-2.16,7.17-2.11,1.58.03,3.01.34,4.29.92,1.28.59,2.38,1.48,3.28,2.67.9,1.19,1.59,2.68,2.07,4.49.47,1.81.69,3.95.65,6.41-.04,2.19-.3,4.33-.8,6.4-.49,2.08-1.16,4.03-2.01,5.86-.85,1.83-1.85,3.51-3.03,5.03-1.17,1.52-2.46,2.83-3.86,3.93s-2.89,1.95-4.46,2.55c-1.58.6-3.19.89-4.84.86-1.65-.03-3.14-.34-4.46-.93s-2.47-1.39-3.43-2.39l-2.11,14.9-9.91-.17,7.02-50.36,5.21.09c1.06.02,1.88.29,2.46.82s.86,1.36.84,2.49l-.23,4.51ZM382.59,97.89c.78.75,1.65,1.29,2.63,1.62s1.94.5,2.88.51c1.48.03,2.85-.42,4.11-1.35,1.26-.93,2.35-2.15,3.26-3.68.91-1.53,1.63-3.26,2.16-5.2.53-1.94.81-3.91.84-5.9.04-2.56-.32-4.46-1.1-5.68-.78-1.22-1.86-1.84-3.24-1.87-.91-.02-1.85.29-2.81.93-.96.64-1.9,1.51-2.82,2.61-.92,1.11-1.77,2.42-2.57,3.93-.79,1.51-1.47,3.14-2.04,4.88l-1.31,9.19Z"/>
    <path class="cls-2" d="M412.93,106.99l7.65-55.01,10.06.18-7.69,55.01-10.02-.18Z"/>
    <path class="cls-2" d="M447.87,69.13l-5.21,38.04-10.06-.18,5.21-38.04,10.06.18ZM456.99,53.16l-9.89,9.52c-.53.51-1.02.86-1.48,1.07-.46.2-1.05.3-1.76.28l-5.62-.1,5.89-8.92c.46-.68.96-1.19,1.51-1.53.55-.33,1.3-.5,2.26-.48l9.09.16Z"/>
    <path class="cls-2" d="M474.65,100.02c-1.67,2.36-3.52,4.22-5.55,5.56-2.03,1.35-4.26,2-6.67,1.95-1.4-.02-2.74-.33-4-.9-1.26-.58-2.36-1.43-3.3-2.57s-1.68-2.57-2.2-4.29c-.52-1.72-.77-3.73-.73-6.02s.36-4.51.97-6.66c.6-2.15,1.45-4.16,2.55-6.04,1.09-1.88,2.41-3.6,3.96-5.17,1.54-1.56,3.25-2.9,5.14-4,1.88-1.1,3.92-1.95,6.11-2.54s4.5-.86,6.91-.82c1.77.03,3.55.19,5.32.48,1.77.29,3.51.77,5.23,1.44l-5.23,36.89-5.44-.1c-.64-.01-1.18-.11-1.6-.29-.43-.18-.77-.42-1.02-.72-.25-.3-.43-.65-.52-1.04-.09-.4-.13-.83-.12-1.3l.22-3.88ZM477.59,75.7c-.22-.03-.44-.04-.67-.05s-.44,0-.67-.01c-1.97-.03-3.79.38-5.46,1.24s-3.11,2.04-4.33,3.55c-1.22,1.51-2.19,3.27-2.9,5.27-.71,2.01-1.09,4.14-1.13,6.38-.04,2.56.32,4.42,1.09,5.58.77,1.16,1.79,1.75,3.08,1.77.91.02,1.82-.3,2.74-.95.91-.65,1.77-1.55,2.58-2.69.81-1.14,1.56-2.49,2.25-4.05.69-1.55,1.3-3.21,1.83-4.98l1.6-11.07Z"/>
    <path class="cls-2" d="M512.73,98.98c0-.17,0-.38.01-.61,0-.23.03-.58.07-1.03.04-.46.12-1.06.22-1.81.1-.75.23-1.73.4-2.93l2.32-16.38-3.33-.06c-.49,0-.89-.19-1.19-.54-.3-.35-.4-.87-.29-1.56l.55-3.98,5.79-1.01,3.31-9.82c.36-1.1,1.13-1.64,2.28-1.62l5.47.09-1.64,11.58,8.91.16-.97,7.08-8.91-.16-2.24,15.83c-.14,1.01-.25,1.81-.34,2.4-.08.59-.15,1.05-.19,1.37-.04.32-.06.54-.07.65,0,.11,0,.19,0,.24-.01.86.17,1.55.56,2.06.39.51.97.77,1.76.79.44,0,.83-.04,1.15-.15.32-.11.6-.22.84-.36.24-.13.45-.25.65-.36s.41-.16.63-.16c.32,0,.55.08.7.21.15.14.29.37.43.69l2.13,4.92c-1.45,1.08-3.03,1.89-4.74,2.43-1.71.54-3.43.79-5.15.76-2.81-.05-5.02-.85-6.63-2.39-1.61-1.54-2.45-3.66-2.5-6.35Z"/>
    <path class="cls-2" d="M575.67,69.32l-5.29,38.04-5.18-.09c-2.42-.04-3.6-1.21-3.56-3.5l.17-3.44c-1.92,2.48-3.99,4.31-6.22,5.49-2.23,1.18-4.52,1.75-6.89,1.71-1.6-.03-3.04-.37-4.31-1.04-1.27-.66-2.31-1.62-3.13-2.87s-1.38-2.77-1.7-4.56c-.31-1.79-.3-3.84.03-6.16l3.27-24.17,10.2.18-3.31,24.17c-.31,2.29-.22,3.91.27,4.87.49.96,1.4,1.45,2.73,1.47.89.02,1.81-.22,2.77-.71.96-.49,1.88-1.19,2.77-2.12s1.72-2.04,2.5-3.34c.77-1.3,1.42-2.77,1.94-4.39l2.75-19.74,10.17.18Z"/>
    <path class="cls-2" d="M605.88,76.76c-.3.41-.6.71-.88.89-.29.18-.64.27-1.06.26-.47,0-.93-.14-1.38-.39-.45-.25-.96-.53-1.52-.82-.56-.29-1.21-.57-1.93-.83-.72-.26-1.58-.4-2.56-.42-1.85-.03-3.23.34-4.14,1.11-.91.77-1.38,1.75-1.4,2.93-.02.96.33,1.74,1.03,2.33.7.59,1.6,1.12,2.67,1.6,1.08.48,2.24.96,3.49,1.45s2.41,1.11,3.48,1.87c1.07.76,1.95,1.72,2.65,2.89.69,1.17,1.03,2.66,1,4.46-.03,1.87-.43,3.64-1.2,5.3-.77,1.66-1.86,3.11-3.28,4.34-1.41,1.23-3.11,2.2-5.1,2.91-1.99.71-4.2,1.04-6.64.99-1.21-.02-2.38-.16-3.52-.41-1.14-.25-2.22-.61-3.24-1.06-1.02-.45-1.93-.96-2.75-1.55-.82-.58-1.5-1.21-2.06-1.88l2.58-3.76c.3-.44.67-.78,1.09-1.02s.93-.35,1.52-.34c.54,0,1.03.17,1.47.49.44.32.93.66,1.46,1.02.54.37,1.18.71,1.92,1.03.75.32,1.72.49,2.93.51.91.02,1.72-.09,2.43-.31s1.3-.53,1.79-.93c.49-.4.85-.87,1.1-1.4.24-.54.37-1.1.38-1.7.02-1.08-.32-1.93-1.03-2.53-.7-.6-1.59-1.14-2.65-1.6-1.06-.46-2.22-.91-3.47-1.36-1.25-.44-2.4-1.03-3.46-1.76-1.06-.73-1.94-1.67-2.63-2.82-.7-1.15-1.03-2.67-.99-4.57.03-1.72.39-3.39,1.07-4.99s1.66-3.02,2.94-4.26c1.28-1.23,2.85-2.22,4.73-2.95,1.87-.73,4.03-1.08,6.47-1.03,2.49.04,4.69.51,6.61,1.39,1.92.88,3.51,1.99,4.77,3.32l-2.69,3.58Z"/>
    <path class="cls-2" d="M642.69,74.69c1.84-2.14,3.79-3.71,5.87-4.71,2.08-1,4.2-1.48,6.37-1.44,1.6.03,3.04.37,4.33,1.04,1.28.66,2.34,1.62,3.17,2.87.83,1.25,1.4,2.77,1.71,4.58.31,1.81.3,3.86-.03,6.18l-3.31,24.17-10.17-.18,3.27-24.17c.34-2.29.25-3.92-.25-4.91-.5-.98-1.43-1.49-2.78-1.51-.86-.02-1.76.22-2.69.69-.93.48-1.85,1.17-2.74,2.08-.89.91-1.72,2-2.48,3.29-.76,1.28-1.42,2.72-1.96,4.31l-2.79,20-10.2-.18,7.65-55.01,10.2.18-3.17,22.73Z"/>
    <path class="cls-2" d="M684.74,107.62c-2.12-.04-4.09-.42-5.9-1.16-1.81-.73-3.37-1.79-4.68-3.17-1.31-1.38-2.32-3.07-3.04-5.08-.72-2.01-1.05-4.3-1.01-6.86.06-3.33.65-6.41,1.79-9.23s2.64-5.26,4.53-7.3,4.07-3.62,6.56-4.75c2.48-1.13,5.1-1.67,7.83-1.62,2.12.04,4.08.42,5.88,1.16,1.8.73,3.35,1.8,4.66,3.19,1.31,1.39,2.33,3.09,3.05,5.1.73,2.01,1.07,4.3,1.03,6.86-.06,3.3-.65,6.36-1.79,9.18-1.13,2.82-2.65,5.24-4.55,7.28-1.9,2.04-4.08,3.63-6.56,4.77-2.47,1.14-5.08,1.69-7.81,1.64ZM685.76,99.99c1.43.03,2.72-.37,3.87-1.19,1.15-.82,2.13-1.93,2.94-3.33.81-1.4,1.45-3.04,1.92-4.9s.71-3.85.75-5.94c.05-2.96-.37-5.1-1.26-6.44-.89-1.33-2.29-2.02-4.22-2.05-1.41-.02-2.69.37-3.85,1.17-1.16.81-2.15,1.9-2.96,3.3-.81,1.39-1.45,3.03-1.92,4.9-.46,1.88-.71,3.87-.75,5.96-.05,2.91.37,5.05,1.26,6.42.89,1.37,2.29,2.07,4.22,2.11Z"/>
    <path class="cls-2" d="M723.35,77.53c.99-1.76,2.04-3.26,3.13-4.49s2.23-2.2,3.4-2.88c1.17-.68,2.36-1.07,3.57-1.16s2.43.15,3.65.71l-2.02,9.54c-1.44-.64-2.8-.92-4.07-.85-1.27.08-2.45.55-3.54,1.42-1.09.87-2.08,2.15-2.97,3.83-.89,1.69-1.68,3.82-2.37,6.39l-2.37,17.04-10.02-.17,5.29-38.07,5.25.09c1.06.02,1.88.29,2.46.82.58.53.86,1.36.84,2.49l-.24,5.28Z"/>
    <path class="cls-2" d="M753.14,69.13l-5.21,38.04-10.06-.18,5.21-38.04,10.06.18ZM755.55,58.33c-.02.86-.21,1.66-.58,2.39-.37.73-.85,1.38-1.44,1.93-.59.56-1.26.99-2.02,1.3-.76.31-1.53.45-2.32.44-.79-.01-1.54-.19-2.27-.52-.72-.33-1.35-.79-1.9-1.37-.54-.58-.98-1.24-1.3-1.98-.32-.75-.47-1.55-.46-2.41.01-.84.2-1.63.56-2.38s.82-1.4,1.38-1.96c.56-.56,1.21-1,1.95-1.32.73-.32,1.49-.47,2.28-.46.81.01,1.59.19,2.34.52.75.33,1.4.79,1.95,1.37s1,1.24,1.33,2,.49,1.57.48,2.43Z"/>
    <path class="cls-2" d="M788.97,69.29l-.63,4.13c-.06.71-.26,1.39-.61,2.02-.34.64-.72,1.2-1.12,1.68l-18.21,22.24,15.93.28-1.06,7.67-28.1-.49.59-4.21c.06-.42.24-.95.55-1.6.31-.65.7-1.24,1.18-1.77l18.44-22.5-15.53-.27,1.06-7.67,27.51.48Z"/>
    <path class="cls-2" d="M806.07,107.62c-2.12-.04-4.09-.42-5.9-1.16-1.81-.73-3.37-1.79-4.68-3.17s-2.32-3.07-3.04-5.08c-.72-2.01-1.05-4.3-1.01-6.86.06-3.33.65-6.41,1.79-9.23,1.13-2.83,2.64-5.26,4.53-7.3s4.07-3.62,6.55-4.75c2.48-1.13,5.1-1.67,7.83-1.62,2.12.04,4.08.42,5.88,1.16,1.8.73,3.35,1.8,4.66,3.19s2.33,3.09,3.05,5.1c.73,2.01,1.07,4.3,1.03,6.86-.06,3.3-.65,6.36-1.79,9.18-1.13,2.82-2.65,5.24-4.55,7.28-1.9,2.04-4.08,3.63-6.55,4.77-2.47,1.14-5.08,1.69-7.81,1.64ZM807.09,99.99c1.43.03,2.72-.37,3.87-1.19,1.15-.82,2.13-1.93,2.94-3.33.81-1.4,1.45-3.04,1.92-4.9.46-1.87.71-3.85.75-5.94.05-2.96-.37-5.1-1.26-6.44-.89-1.33-2.29-2.02-4.22-2.05-1.41-.02-2.69.37-3.85,1.17-1.16.81-2.15,1.9-2.96,3.3-.81,1.39-1.45,3.03-1.92,4.9s-.71,3.87-.75,5.96c-.05,2.91.37,5.05,1.26,6.42.89,1.37,2.29,2.07,4.22,2.11Z"/>
    <path class="cls-2" d="M844.7,76.15c1.94-2.63,4.06-4.56,6.33-5.81,2.28-1.24,4.64-1.84,7.08-1.8,1.58.03,3,.37,4.27,1.04,1.27.66,2.32,1.62,3.15,2.87.83,1.25,1.4,2.77,1.71,4.58.31,1.81.3,3.86-.03,6.18l-3.31,24.17-10.17-.18,3.27-24.17c.34-2.29.25-3.91-.25-4.87-.5-.96-1.4-1.45-2.71-1.47-.94-.02-1.9.24-2.9.78-1,.54-1.96,1.3-2.89,2.3s-1.79,2.2-2.58,3.62c-.79,1.42-1.43,3-1.93,4.74l-2.44,18.86-10.2-.18,5.25-38.08,5.21.09c1.06.02,1.88.29,2.46.82.58.53.86,1.36.84,2.49l-.18,4.03Z"/>
    <path class="cls-2" d="M876.2,98.98c0-.17,0-.38.01-.61,0-.23.03-.58.07-1.03.04-.46.12-1.06.22-1.81.1-.75.23-1.73.4-2.93l2.32-16.38-3.33-.06c-.49,0-.89-.19-1.19-.54s-.4-.87-.29-1.56l.55-3.98,5.79-1.01,3.31-9.82c.36-1.1,1.13-1.64,2.28-1.62l5.47.09-1.64,11.58,8.91.16-.97,7.08-8.91-.16-2.24,15.83c-.14,1.01-.25,1.81-.34,2.4-.08.59-.15,1.05-.19,1.37-.04.32-.06.54-.07.65,0,.11,0,.19,0,.24-.02.86.17,1.55.56,2.06.39.51.97.77,1.76.79.44,0,.83-.04,1.15-.15.32-.11.6-.22.84-.36.24-.13.45-.25.65-.36.2-.11.41-.16.63-.16.32,0,.55.08.7.21.15.14.29.37.43.69l2.13,4.92c-1.45,1.08-3.03,1.89-4.74,2.43-1.71.54-3.43.79-5.15.76-2.81-.05-5.02-.85-6.63-2.39-1.61-1.54-2.45-3.66-2.5-6.35Z"/>
    <path class="cls-2" d="M911.79,91.37c-.1,5.64,2.23,8.51,6.99,8.59,1.58.03,2.87-.15,3.87-.54,1.01-.39,1.87-.82,2.59-1.29.72-.47,1.39-.9,2-1.3.61-.4,1.31-.59,2.1-.57.35,0,.67.09.98.26.31.17.58.39.82.66l2.53,3.15c-1.35,1.31-2.67,2.43-3.94,3.35s-2.59,1.69-3.96,2.3c-1.37.6-2.79,1.04-4.28,1.31-1.48.27-3.11.39-4.89.36-2.24-.04-4.28-.46-6.12-1.25-1.83-.8-3.4-1.9-4.69-3.32-1.29-1.42-2.29-3.11-2.98-5.08-.69-1.97-1.02-4.17-.98-6.58.04-2.02.29-3.99.77-5.9s1.15-3.73,2.02-5.44c.87-1.71,1.91-3.28,3.13-4.7,1.22-1.42,2.6-2.64,4.15-3.66,1.55-1.02,3.23-1.81,5.05-2.37,1.82-.56,3.76-.82,5.8-.79,2,.03,3.76.36,5.29.96,1.53.61,2.81,1.38,3.82,2.32s1.78,1.99,2.29,3.13.76,2.28.74,3.42c-.03,1.7-.4,3.26-1.12,4.68-.72,1.42-1.95,2.67-3.69,3.76-1.75,1.09-4.1,2.01-7.08,2.76s-6.72,1.31-11.24,1.67v.11ZM922.05,75.53c-1.08-.02-2.11.19-3.08.63s-1.85,1.07-2.64,1.88c-.79.81-1.49,1.79-2.1,2.94-.61,1.15-1.11,2.43-1.51,3.86,2.74-.35,4.96-.73,6.66-1.16,1.7-.43,3.01-.9,3.94-1.41s1.56-1.08,1.88-1.69c.32-.61.48-1.27.5-1.99,0-.34-.06-.7-.2-1.06-.14-.36-.36-.68-.65-.97-.29-.29-.67-.53-1.13-.72s-1.02-.29-1.66-.31Z"/>
    <path class="cls-2" d="M965.28,76.76c-.3.41-.6.71-.88.89-.29.18-.64.27-1.06.26-.47,0-.93-.14-1.38-.39-.45-.25-.96-.53-1.52-.82-.56-.29-1.2-.57-1.93-.83-.72-.26-1.58-.4-2.56-.42-1.85-.03-3.23.34-4.14,1.11-.91.77-1.38,1.75-1.4,2.93-.02.96.33,1.74,1.03,2.33.7.59,1.6,1.12,2.67,1.6,1.08.48,2.24.96,3.49,1.45,1.25.49,2.41,1.11,3.48,1.87,1.07.76,1.96,1.72,2.65,2.89.69,1.17,1.03,2.66.99,4.46-.03,1.87-.43,3.64-1.2,5.3-.77,1.66-1.86,3.11-3.27,4.34-1.41,1.23-3.11,2.2-5.1,2.91s-4.2,1.04-6.64.99c-1.21-.02-2.38-.16-3.53-.41-1.14-.25-2.22-.61-3.24-1.06-1.02-.45-1.93-.96-2.75-1.55-.82-.58-1.5-1.21-2.06-1.88l2.58-3.76c.3-.44.67-.78,1.09-1.02.42-.24.93-.35,1.52-.34.54,0,1.03.17,1.47.49.44.32.92.66,1.46,1.02.54.37,1.18.71,1.92,1.03.75.32,1.72.49,2.93.51.91.02,1.72-.09,2.43-.31.71-.22,1.3-.53,1.79-.93.49-.4.85-.87,1.1-1.4.24-.54.37-1.1.38-1.7.02-1.08-.32-1.93-1.03-2.53-.7-.6-1.59-1.14-2.65-1.6-1.06-.46-2.22-.91-3.47-1.36-1.25-.44-2.4-1.03-3.46-1.76-1.06-.73-1.94-1.67-2.63-2.82-.7-1.15-1.03-2.67-.99-4.57.03-1.72.39-3.39,1.07-4.99s1.66-3.02,2.94-4.26c1.28-1.23,2.85-2.22,4.73-2.95,1.87-.73,4.03-1.08,6.47-1.03,2.49.04,4.69.51,6.61,1.39,1.92.88,3.51,1.99,4.77,3.32l-2.69,3.58Z"/>
  </g>
  <g>
    <path class="cls-2" d="M1092.04,47.9c-.09.12-.17.21-.26.27s-.2.1-.35.1c-.16,0-.34-.07-.53-.2-.19-.13-.43-.28-.72-.44s-.63-.31-1.05-.44c-.41-.13-.92-.2-1.52-.2-.8,0-1.51.14-2.12.43-.61.28-1.12.69-1.54,1.23-.41.54-.72,1.18-.93,1.95s-.31,1.61-.31,2.56.11,1.86.34,2.63c.22.77.54,1.41.96,1.93.41.52.91.92,1.5,1.19.58.27,1.24.41,1.97.41s1.27-.08,1.72-.25c.45-.17.82-.35,1.12-.55s.54-.39.74-.55.39-.25.59-.25c.24,0,.42.09.55.27l.8,1.05c-.35.44-.76.82-1.21,1.13-.45.31-.94.57-1.46.78s-1.06.36-1.63.46c-.57.1-1.15.15-1.74.15-1.02,0-1.96-.19-2.84-.56s-1.63-.92-2.28-1.63c-.64-.71-1.15-1.59-1.51-2.63-.37-1.04-.55-2.22-.55-3.55,0-1.21.17-2.33.51-3.36s.83-1.92,1.48-2.66c.65-.75,1.45-1.33,2.4-1.75s2.04-.63,3.27-.63c1.15,0,2.16.18,3.03.55s1.65.89,2.33,1.57l-.76,1.03Z"/>
    <path class="cls-2" d="M1102.64,44.74c1.19,0,2.26.2,3.22.59.95.4,1.77.96,2.44,1.69s1.19,1.61,1.55,2.65c.36,1.04.54,2.19.54,3.47s-.18,2.45-.54,3.47-.88,1.91-1.55,2.64-1.49,1.29-2.44,1.68c-.96.39-2.03.59-3.22.59s-2.28-.2-3.24-.59c-.96-.39-1.78-.95-2.45-1.68-.68-.73-1.19-1.61-1.55-2.64s-.54-2.19-.54-3.47.18-2.43.54-3.47c.36-1.03.88-1.92,1.55-2.65.67-.73,1.49-1.29,2.45-1.69.96-.4,2.04-.59,3.24-.59ZM1102.64,59.28c1.61,0,2.81-.54,3.6-1.62.79-1.08,1.19-2.58,1.19-4.51s-.4-3.45-1.19-4.54c-.79-1.08-1.99-1.62-3.6-1.62-.81,0-1.53.14-2.13.42-.61.28-1.11.68-1.51,1.21-.4.53-.7,1.17-.9,1.94s-.3,1.63-.3,2.6c0,1.93.4,3.43,1.2,4.51.8,1.08,2.01,1.62,3.64,1.62Z"/>
    <path class="cls-2" d="M1116.72,47.37c.35-.4.73-.76,1.13-1.08.4-.32.82-.6,1.26-.83.45-.23.92-.41,1.42-.53.5-.12,1.04-.18,1.62-.18.89,0,1.67.15,2.36.44.68.29,1.25.71,1.71,1.25.46.54.8,1.19,1.04,1.96.24.76.35,1.6.35,2.53v10.38h-2.88v-10.38c0-1.23-.28-2.19-.84-2.87-.56-.68-1.42-1.02-2.57-1.02-.85,0-1.64.2-2.37.61-.73.41-1.41.96-2.03,1.66v12h-2.88v-16.29h1.72c.41,0,.66.2.76.6l.22,1.77Z"/>
    <path class="cls-2" d="M1143.16,37.6v23.69h-2.86v-23.69h2.86Z"/>
    <path class="cls-2" d="M1147.38,47.3c.9-.87,1.87-1.52,2.91-1.95s2.19-.64,3.46-.64c.91,0,1.72.15,2.43.45.71.3,1.3.72,1.79,1.25.48.54.85,1.18,1.09,1.95.25.76.37,1.6.37,2.51v10.42h-1.27c-.28,0-.49-.05-.64-.14s-.27-.27-.35-.54l-.32-1.54c-.43.4-.85.75-1.25,1.05-.41.31-.84.56-1.29.77-.45.21-.93.37-1.44.48-.51.11-1.08.17-1.7.17s-1.23-.09-1.79-.27c-.56-.18-1.04-.44-1.46-.8-.41-.35-.74-.8-.98-1.34-.24-.54-.36-1.18-.36-1.92,0-.64.18-1.26.53-1.86.35-.59.93-1.12,1.72-1.58.79-.46,1.83-.84,3.1-1.13,1.28-.29,2.84-.46,4.7-.51v-1.27c0-1.26-.27-2.22-.82-2.87-.55-.65-1.35-.97-2.4-.97-.71,0-1.3.09-1.78.26-.48.18-.89.38-1.24.6-.35.22-.65.42-.9.59-.25.18-.5.27-.75.27-.19,0-.36-.05-.5-.15-.14-.1-.26-.23-.35-.38l-.51-.92ZM1156.62,53.96c-1.32.04-2.44.15-3.37.31-.93.17-1.68.38-2.27.65-.58.27-1.01.58-1.27.95-.26.37-.39.77-.39,1.22s.07.8.21,1.11c.14.31.33.57.57.76s.53.34.85.43c.33.09.68.14,1.05.14.5,0,.96-.05,1.38-.15.42-.1.81-.25,1.18-.44s.72-.42,1.06-.69.67-.57.99-.92v-3.38Z"/>
    <path class="cls-2" d="M1174.77,53.54c.06.85.21,1.58.45,2.2.24.62.55,1.13.93,1.53.39.4.84.7,1.38.9.53.2,1.12.3,1.76.3s1.2-.08,1.67-.23c.47-.15.87-.32,1.22-.5s.65-.35.92-.5c.26-.15.52-.22.76-.22.33,0,.58.12.74.37l1.14,1.45c-.44.51-.93.95-1.48,1.29s-1.12.63-1.71.84c-.6.21-1.2.36-1.82.44-.62.09-1.21.13-1.79.13-1.15,0-2.21-.19-3.2-.57-.99-.38-1.84-.94-2.57-1.69-.73-.75-1.3-1.67-1.72-2.77-.42-1.1-.63-2.37-.63-3.82,0-1.13.18-2.19.55-3.18.36-.99.89-1.86,1.57-2.59.68-.73,1.51-1.32,2.49-1.75.98-.43,2.09-.64,3.32-.64,1.04,0,2,.17,2.88.5.88.33,1.64.82,2.27,1.46s1.13,1.42,1.49,2.35.54,1.99.54,3.18c0,.6-.06,1-.19,1.21-.13.21-.38.31-.74.31h-10.21ZM1182.35,51.14c0-.51-.07-1-.22-1.46-.15-.46-.36-.86-.65-1.2-.29-.34-.66-.61-1.1-.81s-.96-.3-1.55-.3c-1.15,0-2.05.33-2.71.98s-1.08,1.58-1.26,2.78h7.5Z"/>
    <path class="cls-2" d="M1203.22,37.39v23.9h-2.43c-.53,0-.86-.24-1-.72l-.34-1.59c-.67.76-1.43,1.38-2.29,1.85s-1.87.71-3.02.71c-.9,0-1.73-.19-2.48-.56-.75-.38-1.4-.92-1.94-1.63-.54-.71-.96-1.6-1.25-2.65s-.44-2.25-.44-3.6c0-1.22.17-2.36.5-3.41.33-1.05.81-1.96,1.43-2.73.62-.77,1.37-1.38,2.24-1.81.87-.43,1.84-.65,2.93-.65.92,0,1.71.14,2.36.43.65.29,1.24.68,1.75,1.17v-8.7h3.97ZM1199.25,49.01c-.45-.55-.94-.93-1.47-1.16-.53-.23-1.1-.34-1.71-.34s-1.14.11-1.62.34c-.48.22-.9.57-1.24,1.02-.34.46-.61,1.04-.79,1.74-.18.7-.27,1.53-.27,2.48s.08,1.78.23,2.45c.16.67.38,1.22.67,1.64.29.42.64.73,1.06.92.42.19.88.28,1.4.28.83,0,1.53-.17,2.11-.51.58-.34,1.12-.83,1.64-1.46v-7.4Z"/>
    <path class="cls-2" d="M1221.37,44.79v16.5h-2.43c-.53,0-.86-.24-1-.72l-.27-1.32c-.68.69-1.42,1.24-2.24,1.67s-1.78.64-2.88.64c-.9,0-1.7-.15-2.39-.46-.69-.31-1.27-.74-1.75-1.29-.47-.56-.83-1.22-1.07-1.99s-.36-1.61-.36-2.53v-10.49h3.97v10.49c0,1.01.23,1.79.7,2.34.47.55,1.17.83,2.1.83.69,0,1.33-.15,1.93-.46.6-.31,1.17-.73,1.71-1.26v-11.94h3.97Z"/>
    <path class="cls-2" d="M1237.12,48.28c-.12.15-.23.27-.35.35s-.28.13-.49.13c-.2,0-.4-.06-.59-.19-.19-.12-.42-.26-.69-.42s-.59-.29-.96-.42-.83-.19-1.38-.19c-.7,0-1.31.13-1.83.38-.53.25-.96.61-1.31,1.09-.35.47-.61,1.04-.78,1.71-.17.67-.26,1.43-.26,2.28s.09,1.66.28,2.35.46,1.26.81,1.73c.35.47.78.82,1.29,1.06s1.07.36,1.71.36,1.14-.08,1.54-.23.72-.33.99-.52c.27-.19.5-.36.7-.51.2-.16.42-.23.67-.23.32,0,.56.12.72.37l1.14,1.45c-.44.51-.92.95-1.43,1.29-.51.35-1.05.63-1.6.84-.55.21-1.12.36-1.71.44-.58.09-1.17.13-1.75.13-1.02,0-1.98-.19-2.88-.57-.9-.38-1.69-.94-2.37-1.66-.67-.73-1.21-1.62-1.6-2.68-.39-1.06-.59-2.26-.59-3.61,0-1.21.17-2.33.52-3.37.35-1.03.86-1.93,1.54-2.69.68-.76,1.51-1.35,2.51-1.78,1-.43,2.14-.64,3.44-.64s2.31.2,3.24.59,1.76.96,2.5,1.71l-1.05,1.45Z"/>
    <path class="cls-2" d="M1240.41,47.09c1.9-1.74,4.18-2.61,6.85-2.61.97,0,1.83.16,2.59.47s1.41.76,1.93,1.32c.53.56.92,1.24,1.2,2.02s.41,1.64.41,2.57v10.42h-1.8c-.38,0-.67-.06-.87-.17s-.37-.34-.48-.68l-.35-1.19c-.42.38-.83.71-1.22.99s-.81.52-1.24.72c-.43.19-.89.34-1.38.44-.49.1-1.03.15-1.62.15-.7,0-1.34-.09-1.93-.28s-1.1-.47-1.53-.84c-.43-.38-.76-.84-1-1.4-.24-.56-.35-1.21-.35-1.95,0-.42.07-.83.21-1.25.14-.41.37-.81.68-1.18.32-.38.73-.73,1.23-1.06.5-.33,1.12-.62,1.86-.87.73-.25,1.59-.45,2.56-.6.98-.16,2.09-.25,3.35-.28v-.97c0-1.1-.24-1.92-.71-2.45-.47-.53-1.15-.8-2.04-.8-.64,0-1.18.08-1.6.23s-.8.32-1.12.51c-.32.19-.61.36-.88.51-.26.15-.55.23-.88.23-.28,0-.51-.07-.71-.22-.19-.15-.35-.31-.47-.51l-.71-1.27ZM1249.52,54.25c-1.15.05-2.11.15-2.89.3-.78.14-1.41.33-1.88.55-.47.23-.81.49-1.01.79-.2.3-.31.63-.31.98,0,.7.21,1.2.62,1.5.41.3.95.45,1.62.45.81,0,1.52-.15,2.12-.44.59-.29,1.18-.74,1.74-1.34v-2.78Z"/>
    <path class="cls-2" d="M1268.95,48.28c-.12.15-.23.27-.35.35-.11.09-.28.13-.49.13s-.4-.06-.6-.19c-.19-.12-.42-.26-.69-.42s-.59-.29-.96-.42c-.37-.12-.83-.19-1.38-.19-.7,0-1.31.13-1.83.38s-.96.61-1.31,1.09c-.35.47-.61,1.04-.78,1.71-.17.67-.26,1.43-.26,2.28s.09,1.66.28,2.35.46,1.26.81,1.73c.35.47.78.82,1.29,1.06.5.24,1.07.36,1.71.36s1.15-.08,1.54-.23c.39-.16.72-.33.99-.52.27-.19.5-.36.7-.51.2-.16.42-.23.67-.23.32,0,.56.12.72.37l1.14,1.45c-.44.51-.92.95-1.43,1.29-.52.35-1.05.63-1.6.84-.55.21-1.12.36-1.71.44-.58.09-1.17.13-1.74.13-1.02,0-1.98-.19-2.88-.57-.9-.38-1.69-.94-2.36-1.66-.68-.73-1.21-1.62-1.6-2.68-.39-1.06-.59-2.26-.59-3.61,0-1.21.17-2.33.52-3.37.35-1.03.86-1.93,1.54-2.69.68-.76,1.51-1.35,2.51-1.78,1-.43,2.14-.64,3.44-.64s2.31.2,3.24.59c.93.4,1.76.96,2.5,1.71l-1.05,1.45Z"/>
    <path class="cls-2" d="M1277.3,39.98c0,.34-.07.67-.21.96-.14.3-.32.56-.55.79-.23.23-.5.41-.81.54-.31.13-.64.2-1,.2s-.67-.07-.97-.2c-.31-.13-.57-.31-.8-.54-.23-.22-.41-.49-.54-.79-.13-.3-.2-.62-.2-.96s.07-.69.2-1c.13-.31.31-.58.54-.8s.49-.4.8-.54c.31-.13.63-.2.97-.2s.69.07,1,.2c.31.13.58.31.81.54.23.23.42.49.55.8.14.31.21.64.21,1ZM1276.75,44.79v16.5h-3.99v-16.5h3.99Z"/>
    <path class="cls-2" d="M1288.11,44.53c1.22,0,2.33.2,3.34.59,1,.4,1.86.96,2.57,1.69.71.73,1.26,1.62,1.65,2.67.38,1.05.58,2.23.58,3.52s-.19,2.49-.58,3.54c-.39,1.05-.94,1.95-1.65,2.69-.71.74-1.57,1.31-2.57,1.71-1,.4-2.12.59-3.34.59s-2.35-.2-3.36-.59c-1.01-.4-1.87-.97-2.58-1.71-.71-.74-1.27-1.64-1.66-2.69s-.59-2.23-.59-3.54.2-2.47.59-3.52.94-1.94,1.66-2.67c.71-.73,1.57-1.29,2.58-1.69s2.13-.59,3.36-.59ZM1288.11,58.48c1.37,0,2.39-.46,3.05-1.38s.99-2.27.99-4.05-.33-3.14-.99-4.07c-.66-.93-1.68-1.4-3.05-1.4s-2.43.47-3.1,1.41c-.67.94-1,2.29-1,4.06s.33,3.12,1,4.05c.67.93,1.7,1.39,3.1,1.39ZM1293.67,37.78l-3.97,4.2c-.2.21-.4.36-.59.44-.19.08-.43.12-.73.12h-2.38l2.28-3.91c.16-.28.35-.49.56-.63.21-.14.54-.22.96-.22h3.86Z"/>
    <path class="cls-2" d="M1303,46.82c.33-.33.68-.64,1.05-.93.37-.28.76-.52,1.17-.72.41-.2.86-.35,1.33-.47.47-.11.99-.17,1.54-.17.9,0,1.7.15,2.4.46s1.28.73,1.75,1.29c.47.55.82,1.21,1.06,1.98.24.77.36,1.61.36,2.53v10.5h-3.97v-10.5c0-1.01-.23-1.79-.69-2.34-.46-.55-1.16-.83-2.11-.83-.69,0-1.33.16-1.93.47-.6.31-1.17.73-1.71,1.27v11.94h-3.97v-16.5h2.43c.51,0,.85.24,1.01.72l.27,1.3Z"/>
    <path class="cls-2" d="M1337.07,48.28c-.12.15-.23.27-.35.35-.11.09-.28.13-.49.13-.2,0-.4-.06-.6-.19-.19-.12-.42-.26-.69-.42-.27-.16-.59-.29-.96-.42-.37-.12-.83-.19-1.38-.19-.7,0-1.31.13-1.83.38s-.96.61-1.31,1.09c-.35.47-.61,1.04-.78,1.71-.17.67-.26,1.43-.26,2.28s.09,1.66.28,2.35.46,1.26.81,1.73c.35.47.78.82,1.29,1.06.5.24,1.07.36,1.71.36s1.15-.08,1.54-.23c.39-.16.72-.33.99-.52.27-.19.5-.36.7-.51.2-.16.42-.23.67-.23.32,0,.56.12.72.37l1.14,1.45c-.44.51-.92.95-1.43,1.29s-1.05.63-1.6.84-1.12.36-1.71.44-1.17.13-1.75.13c-1.02,0-1.98-.19-2.88-.57-.9-.38-1.69-.94-2.37-1.66-.68-.73-1.21-1.62-1.6-2.68-.39-1.06-.59-2.26-.59-3.61,0-1.21.17-2.33.52-3.37.35-1.03.86-1.93,1.54-2.69.68-.76,1.51-1.35,2.51-1.78,1-.43,2.14-.64,3.44-.64s2.31.2,3.24.59,1.76.96,2.5,1.71l-1.05,1.45Z"/>
    <path class="cls-2" d="M1347.77,44.53c1.22,0,2.34.2,3.34.59,1,.4,1.86.96,2.57,1.69.71.73,1.26,1.62,1.65,2.67.39,1.05.58,2.23.58,3.52s-.19,2.49-.58,3.54c-.39,1.05-.94,1.95-1.65,2.69-.71.74-1.57,1.31-2.57,1.71-1,.4-2.12.59-3.34.59s-2.35-.2-3.36-.59c-1.01-.4-1.87-.97-2.58-1.71-.71-.74-1.27-1.64-1.66-2.69-.39-1.05-.59-2.23-.59-3.54s.2-2.47.59-3.52c.39-1.05.94-1.94,1.66-2.67.71-.73,1.57-1.29,2.58-1.69s2.13-.59,3.36-.59ZM1347.77,58.48c1.37,0,2.39-.46,3.05-1.38s.99-2.27.99-4.05-.33-3.14-.99-4.07c-.66-.93-1.68-1.4-3.05-1.4s-2.43.47-3.1,1.41-1.01,2.29-1.01,4.06.34,3.12,1.01,4.05,1.7,1.39,3.1,1.39Z"/>
    <path class="cls-2" d="M1362.66,46.82c.33-.33.68-.64,1.05-.93.37-.28.76-.52,1.17-.72.41-.2.85-.35,1.33-.47.47-.11.99-.17,1.54-.17.9,0,1.7.15,2.4.46.7.31,1.28.73,1.74,1.29.47.55.82,1.21,1.06,1.98.24.77.36,1.61.36,2.53v10.5h-3.97v-10.5c0-1.01-.23-1.79-.69-2.34-.46-.55-1.16-.83-2.11-.83-.69,0-1.33.16-1.93.47-.6.31-1.17.73-1.71,1.27v11.94h-3.97v-16.5h2.43c.51,0,.85.24,1.01.72l.27,1.3Z"/>
    <path class="cls-2" d="M1393.52,61.29h-3.97v-13.53h-7.66v8.94c0,.51.13.92.38,1.21.25.29.6.43,1.04.43.25,0,.45-.03.62-.09.17-.06.31-.12.43-.18.12-.06.23-.13.33-.19.1-.06.19-.09.29-.09.12,0,.21.03.29.09.08.06.16.15.24.27l1.19,1.93c-.58.48-1.24.85-1.99,1.09-.75.25-1.53.37-2.33.37-1.44,0-2.54-.41-3.31-1.21-.77-.81-1.15-1.93-1.15-3.35v-9.22h-1.69c-.21,0-.4-.07-.55-.21-.15-.14-.23-.35-.23-.63v-1.58l2.65-.45.84-4.49c.05-.21.16-.38.31-.5s.34-.18.58-.18h2.06v5.2h11.63v16.36ZM1394.21,39.92c0,.34-.07.67-.21.97-.14.31-.32.57-.55.8s-.5.41-.82.54-.65.2-1.01.2-.66-.07-.96-.2-.56-.31-.79-.54-.41-.49-.54-.8c-.13-.31-.2-.63-.2-.97s.07-.68.2-.99c.13-.31.31-.57.54-.8s.49-.41.79-.55c.3-.13.62-.2.96-.2s.69.07,1.01.2c.32.13.59.32.82.55s.42.5.55.8c.14.31.21.64.21.99Z"/>
    <path class="cls-2" d="M1401.29,46.82c.33-.33.68-.64,1.05-.93.37-.28.76-.52,1.17-.72.41-.2.85-.35,1.33-.47.47-.11.99-.17,1.54-.17.9,0,1.7.15,2.4.46.7.31,1.28.73,1.74,1.29.47.55.82,1.21,1.06,1.98.24.77.36,1.61.36,2.53v10.5h-3.97v-10.5c0-1.01-.23-1.79-.69-2.34-.46-.55-1.16-.83-2.11-.83-.69,0-1.33.16-1.93.47-.6.31-1.17.73-1.71,1.27v11.94h-3.97v-16.5h2.43c.51,0,.85.24,1.01.72l.27,1.3Z"/>
    <path class="cls-2" d="M1429.93,44.79v16.5h-2.43c-.53,0-.86-.24-1-.72l-.27-1.32c-.68.69-1.42,1.24-2.24,1.67-.82.42-1.78.64-2.88.64-.9,0-1.7-.15-2.39-.46s-1.27-.74-1.75-1.29c-.47-.56-.83-1.22-1.07-1.99-.24-.77-.36-1.61-.36-2.53v-10.49h3.97v10.49c0,1.01.23,1.79.7,2.34.47.55,1.17.83,2.1.83.69,0,1.33-.15,1.93-.46s1.17-.73,1.71-1.26v-11.94h3.97Z"/>
    <path class="cls-2" d="M1433.47,47.09c1.9-1.74,4.18-2.61,6.85-2.61.96,0,1.83.16,2.59.47s1.4.76,1.93,1.32c.53.56.93,1.24,1.2,2.02s.41,1.64.41,2.57v10.42h-1.8c-.38,0-.67-.06-.87-.17-.2-.11-.37-.34-.48-.68l-.35-1.19c-.42.38-.83.71-1.22.99-.4.28-.81.52-1.24.72s-.89.34-1.38.44-1.03.15-1.62.15c-.7,0-1.34-.09-1.93-.28s-1.1-.47-1.53-.84c-.43-.38-.76-.84-1-1.4-.24-.56-.35-1.21-.35-1.95,0-.42.07-.83.21-1.25.14-.41.37-.81.68-1.18.32-.38.73-.73,1.23-1.06.5-.33,1.12-.62,1.86-.87.73-.25,1.59-.45,2.57-.6.98-.16,2.09-.25,3.35-.28v-.97c0-1.1-.24-1.92-.71-2.45-.47-.53-1.15-.8-2.04-.8-.64,0-1.18.08-1.6.23s-.8.32-1.12.51c-.32.19-.61.36-.88.51-.26.15-.55.23-.88.23-.28,0-.51-.07-.71-.22-.19-.15-.35-.31-.47-.51l-.71-1.27ZM1442.58,54.25c-1.15.05-2.11.15-2.89.3-.78.14-1.41.33-1.88.55-.47.23-.81.49-1.01.79-.2.3-.3.63-.3.98,0,.7.21,1.2.62,1.5.41.3.95.45,1.62.45.82,0,1.52-.15,2.12-.44.59-.29,1.18-.74,1.75-1.34v-2.78Z"/>
    <path class="cls-2" d="M1472.33,37.39v23.9h-2.43c-.53,0-.86-.24-1-.72l-.34-1.59c-.67.76-1.43,1.38-2.29,1.85s-1.87.71-3.02.71c-.9,0-1.73-.19-2.48-.56-.75-.38-1.4-.92-1.94-1.63-.54-.71-.96-1.6-1.25-2.65s-.44-2.25-.44-3.6c0-1.22.17-2.36.5-3.41.33-1.05.81-1.96,1.43-2.73.62-.77,1.37-1.38,2.24-1.81.87-.43,1.84-.65,2.93-.65.92,0,1.71.14,2.36.43.65.29,1.24.68,1.75,1.17v-8.7h3.97ZM1468.36,49.01c-.45-.55-.94-.93-1.47-1.16-.53-.23-1.1-.34-1.71-.34s-1.14.11-1.62.34c-.48.22-.9.57-1.24,1.02-.34.46-.61,1.04-.79,1.74-.18.7-.27,1.53-.27,2.48s.08,1.78.23,2.45c.16.67.38,1.22.67,1.64.29.42.64.73,1.06.92.42.19.88.28,1.4.28.83,0,1.53-.17,2.11-.51.58-.34,1.12-.83,1.64-1.46v-7.4Z"/>
    <path class="cls-2" d="M1479.31,53.54c.06.85.21,1.58.45,2.2.24.62.55,1.13.93,1.53s.84.7,1.38.9c.53.2,1.12.3,1.76.3s1.2-.08,1.67-.23c.47-.15.87-.32,1.22-.5.35-.18.65-.35.92-.5.26-.15.52-.22.76-.22.33,0,.58.12.74.37l1.14,1.45c-.44.51-.93.95-1.48,1.29s-1.12.63-1.71.84c-.59.21-1.2.36-1.82.44-.62.09-1.21.13-1.79.13-1.15,0-2.21-.19-3.2-.57-.99-.38-1.84-.94-2.57-1.69-.73-.75-1.3-1.67-1.72-2.77-.42-1.1-.63-2.37-.63-3.82,0-1.13.18-2.19.55-3.18.37-.99.89-1.86,1.57-2.59.68-.73,1.51-1.32,2.49-1.75.98-.43,2.09-.64,3.32-.64,1.04,0,2,.17,2.88.5.88.33,1.63.82,2.27,1.46s1.13,1.42,1.49,2.35.54,1.99.54,3.18c0,.6-.06,1-.19,1.21-.13.21-.38.31-.74.31h-10.21ZM1486.89,51.14c0-.51-.07-1-.22-1.46s-.36-.86-.65-1.2c-.29-.34-.66-.61-1.1-.81-.45-.2-.96-.3-1.55-.3-1.15,0-2.05.33-2.71.98s-1.08,1.58-1.26,2.78h7.5Z"/>
    <path class="cls-2" d="M1511.24,57.8c.84,0,1.58-.14,2.24-.42.66-.28,1.21-.67,1.67-1.17s.8-1.12,1.04-1.83c.24-.72.36-1.52.36-2.41v-13.93h4.33v13.93c0,1.38-.22,2.66-.67,3.84-.45,1.17-1.08,2.19-1.92,3.04s-1.84,1.52-3.03,2c-1.19.48-2.53.72-4.02.72s-2.85-.24-4.04-.72c-1.19-.48-2.2-1.14-3.03-2s-1.47-1.87-1.91-3.04c-.45-1.17-.67-2.45-.67-3.84v-13.93h4.33v13.91c0,.89.12,1.69.36,2.41s.59,1.33,1.05,1.84c.46.51,1.01.9,1.67,1.18.66.28,1.41.42,2.24.42Z"/>
    <path class="cls-2" d="M1528.33,46.82c.33-.33.68-.64,1.05-.93.37-.28.76-.52,1.17-.72.41-.2.85-.35,1.33-.47.47-.11.99-.17,1.54-.17.9,0,1.7.15,2.4.46.7.31,1.28.73,1.74,1.29.47.55.82,1.21,1.06,1.98.24.77.36,1.61.36,2.53v10.5h-3.97v-10.5c0-1.01-.23-1.79-.69-2.34-.46-.55-1.16-.83-2.11-.83-.69,0-1.33.16-1.93.47-.6.31-1.17.73-1.71,1.27v11.94h-3.97v-16.5h2.43c.51,0,.85.24,1.01.72l.27,1.3Z"/>
    <path class="cls-2" d="M1547.42,39.98c0,.34-.07.67-.21.96-.14.3-.32.56-.55.79-.23.23-.5.41-.81.54-.31.13-.64.2-1,.2s-.67-.07-.97-.2c-.31-.13-.57-.31-.8-.54-.23-.22-.41-.49-.54-.79-.13-.3-.2-.62-.2-.96s.07-.69.2-1c.13-.31.31-.58.54-.8s.49-.4.8-.54c.31-.13.63-.2.97-.2s.69.07,1,.2c.31.13.58.31.81.54.23.23.42.49.55.8.14.31.21.64.21,1ZM1546.87,44.79v16.5h-3.99v-16.5h3.99Z"/>
    <path class="cls-2" d="M1554.95,37.39v23.9h-3.97v-23.9h3.97Z"/>
    <path class="cls-2" d="M1562.94,37.39v23.9h-3.97v-23.9h3.97Z"/>
    <path class="cls-2" d="M1566.53,47.09c1.9-1.74,4.18-2.61,6.85-2.61.97,0,1.83.16,2.59.47.76.32,1.41.76,1.93,1.32.53.56.92,1.24,1.2,2.02s.41,1.64.41,2.57v10.42h-1.8c-.38,0-.67-.06-.87-.17-.2-.11-.36-.34-.48-.68l-.35-1.19c-.42.38-.83.71-1.22.99s-.81.52-1.24.72c-.43.19-.89.34-1.38.44-.49.1-1.03.15-1.62.15-.7,0-1.34-.09-1.93-.28s-1.1-.47-1.53-.84c-.43-.38-.76-.84-1-1.4-.24-.56-.35-1.21-.35-1.95,0-.42.07-.83.21-1.25s.37-.81.68-1.18c.32-.38.73-.73,1.23-1.06.5-.33,1.12-.62,1.86-.87.73-.25,1.59-.45,2.57-.6s2.09-.25,3.35-.28v-.97c0-1.1-.24-1.92-.71-2.45-.47-.53-1.15-.8-2.04-.8-.64,0-1.18.08-1.6.23s-.8.32-1.12.51-.61.36-.88.51c-.26.15-.55.23-.88.23-.28,0-.52-.07-.71-.22-.19-.15-.35-.31-.47-.51l-.71-1.27ZM1575.63,54.25c-1.15.05-2.11.15-2.9.3s-1.41.33-1.88.55c-.47.23-.81.49-1.01.79-.21.3-.31.63-.31.98,0,.7.21,1.2.62,1.5.41.3.95.45,1.62.45.81,0,1.52-.15,2.12-.44.6-.29,1.18-.74,1.75-1.34v-2.78Z"/>
    <path class="cls-2" d="M1586.96,46.82c.33-.33.68-.64,1.05-.93.37-.28.76-.52,1.17-.72.41-.2.86-.35,1.33-.47.47-.11.99-.17,1.54-.17.9,0,1.7.15,2.4.46.7.31,1.28.73,1.75,1.29.47.55.82,1.21,1.06,1.98s.36,1.61.36,2.53v10.5h-3.97v-10.5c0-1.01-.23-1.79-.69-2.34-.46-.55-1.16-.83-2.11-.83-.69,0-1.33.16-1.93.47-.6.31-1.17.73-1.71,1.27v11.94h-3.97v-16.5h2.43c.51,0,.85.24,1.01.72l.27,1.3Z"/>
    <path class="cls-2" d="M1608.69,44.53c1.22,0,2.33.2,3.34.59,1,.4,1.86.96,2.57,1.69.71.73,1.26,1.62,1.65,2.67.39,1.05.58,2.23.58,3.52s-.19,2.49-.58,3.54c-.39,1.05-.94,1.95-1.65,2.69-.71.74-1.57,1.31-2.57,1.71-1,.4-2.12.59-3.34.59s-2.35-.2-3.36-.59c-1.01-.4-1.87-.97-2.58-1.71-.71-.74-1.27-1.64-1.66-2.69-.39-1.05-.59-2.23-.59-3.54s.2-2.47.59-3.52c.39-1.05.94-1.94,1.66-2.67.71-.73,1.57-1.29,2.58-1.69s2.13-.59,3.36-.59ZM1608.69,58.48c1.37,0,2.39-.46,3.05-1.38.66-.92.99-2.27.99-4.05s-.33-3.14-.99-4.07c-.66-.93-1.68-1.4-3.05-1.4s-2.43.47-3.1,1.41c-.67.94-1.01,2.29-1.01,4.06s.33,3.12,1.01,4.05c.67.93,1.7,1.39,3.1,1.39Z"/>
    <path class="cls-2" d="M1629.94,48.01c-.11.17-.22.29-.34.36-.12.07-.27.1-.45.1-.19,0-.4-.05-.62-.16-.22-.11-.47-.23-.76-.36s-.62-.25-.99-.36c-.37-.11-.81-.16-1.31-.16-.78,0-1.4.17-1.84.5-.45.33-.67.77-.67,1.3,0,.35.12.65.35.89.23.24.54.45.92.64s.81.35,1.29.49c.48.15.97.3,1.47.47.5.17.99.37,1.47.59.48.22.91.5,1.29.84.38.34.69.74.92,1.21s.35,1.04.35,1.71c0,.79-.14,1.53-.43,2.2-.28.67-.71,1.25-1.26,1.74s-1.25.87-2.07,1.14-1.77.41-2.84.41c-.57,0-1.12-.05-1.67-.15s-1.06-.24-1.56-.43c-.5-.18-.96-.4-1.38-.64-.42-.25-.8-.51-1.12-.8l.92-1.51c.12-.18.26-.32.42-.42.16-.1.37-.15.61-.15s.48.07.7.21c.22.14.47.29.76.45.29.16.63.31,1.02.45s.89.21,1.49.21c.47,0,.88-.06,1.21-.17s.62-.26.84-.44.38-.39.48-.64c.1-.24.15-.49.15-.75,0-.39-.12-.7-.35-.95-.23-.25-.54-.46-.92-.64s-.81-.35-1.3-.49c-.49-.14-.99-.3-1.5-.47-.51-.17-1.01-.37-1.5-.6s-.92-.52-1.3-.88-.69-.79-.92-1.3c-.23-.51-.35-1.14-.35-1.87,0-.68.13-1.32.4-1.93s.66-1.14,1.18-1.6c.52-.46,1.17-.82,1.95-1.09.78-.27,1.67-.41,2.69-.41,1.14,0,2.17.19,3.1.56.93.38,1.71.87,2.33,1.48l-.9,1.43Z"/>
    <path class="cls-2" d="M1634.14,65.19c-.09-.08-.14-.14-.18-.21s-.05-.14-.05-.24c0-.08.02-.15.07-.23.05-.08.1-.14.17-.21.11-.12.24-.27.41-.47.17-.19.33-.42.51-.68.17-.26.33-.55.47-.87s.25-.65.31-1c-.03.01-.07.02-.1.02h-.11c-.56,0-1.01-.18-1.36-.55s-.52-.84-.52-1.42c0-.5.17-.93.52-1.29.35-.35.81-.53,1.39-.53.32,0,.61.06.85.18.25.12.45.28.62.49.17.21.29.45.38.72.09.27.13.57.13.89,0,.48-.07.98-.2,1.5-.13.52-.33,1.03-.6,1.54-.26.51-.58,1.01-.96,1.49s-.8.93-1.29,1.33l-.48-.47Z"/>
    <path class="cls-2" d="M1663.25,45v16.29h-1.71c-.41,0-.67-.2-.77-.59l-.22-1.75c-.71.78-1.5,1.41-2.38,1.89-.88.48-1.89.72-3.02.72-.89,0-1.68-.15-2.36-.44-.68-.29-1.25-.71-1.71-1.25s-.81-1.18-1.04-1.95-.35-1.6-.35-2.53v-10.39h2.86v10.39c0,1.23.28,2.19.84,2.86.56.68,1.42,1.01,2.58,1.01.85,0,1.64-.2,2.37-.6s1.41-.96,2.04-1.67v-12h2.86Z"/>
    <path class="cls-2" d="M1670.49,47.37c.35-.4.73-.76,1.13-1.08.4-.32.82-.6,1.26-.83s.92-.41,1.42-.53c.5-.12,1.04-.18,1.62-.18.89,0,1.68.15,2.36.44.68.29,1.25.71,1.71,1.25.46.54.8,1.19,1.04,1.96s.35,1.6.35,2.53v10.38h-2.88v-10.38c0-1.23-.28-2.19-.84-2.87-.56-.68-1.42-1.02-2.57-1.02-.85,0-1.64.2-2.37.61-.73.41-1.41.96-2.03,1.66v12h-2.88v-16.29h1.72c.41,0,.66.2.76.6l.23,1.77Z"/>
    <path class="cls-2" d="M1685.32,47.3c.9-.87,1.87-1.52,2.91-1.95,1.04-.43,2.19-.64,3.46-.64.91,0,1.72.15,2.43.45.71.3,1.3.72,1.79,1.25s.85,1.18,1.09,1.95c.25.76.37,1.6.37,2.51v10.42h-1.27c-.28,0-.49-.05-.64-.14-.15-.09-.27-.27-.35-.54l-.32-1.54c-.43.4-.85.75-1.25,1.05s-.84.56-1.29.77c-.45.21-.93.37-1.44.48-.51.11-1.08.17-1.7.17s-1.23-.09-1.79-.27c-.56-.18-1.04-.44-1.46-.8-.41-.35-.74-.8-.98-1.34-.24-.54-.36-1.18-.36-1.92,0-.64.18-1.26.53-1.86.35-.59.93-1.12,1.72-1.58.79-.46,1.83-.84,3.11-1.13,1.28-.29,2.84-.46,4.7-.51v-1.27c0-1.26-.27-2.22-.82-2.87-.55-.65-1.35-.97-2.4-.97-.71,0-1.3.09-1.78.26-.48.18-.89.38-1.24.6-.35.22-.65.42-.9.59-.25.18-.5.27-.75.27-.19,0-.36-.05-.5-.15-.14-.1-.26-.23-.35-.38l-.52-.92ZM1694.57,53.96c-1.32.04-2.44.15-3.37.31-.93.17-1.68.38-2.27.65-.58.27-1.01.58-1.27.95-.26.37-.39.77-.39,1.22s.07.8.21,1.11c.14.31.33.57.57.76.24.2.53.34.85.43.33.09.68.14,1.05.14.5,0,.96-.05,1.38-.15.42-.1.81-.25,1.18-.44.37-.19.72-.42,1.06-.69s.67-.57.99-.92v-3.38Z"/>
    <path class="cls-2" d="M1094.1,78.91v16.29h-1.71c-.41,0-.67-.2-.77-.59l-.23-1.75c-.71.78-1.5,1.41-2.38,1.89-.88.48-1.89.72-3.02.72-.89,0-1.68-.15-2.36-.44-.68-.29-1.25-.71-1.71-1.25s-.81-1.18-1.04-1.95-.35-1.6-.35-2.53v-10.39h2.86v10.39c0,1.23.28,2.19.84,2.86.56.68,1.42,1.01,2.58,1.01.85,0,1.64-.2,2.37-.6s1.41-.96,2.04-1.67v-12h2.86Z"/>
    <path class="cls-2" d="M1101.34,81.28c.35-.4.73-.76,1.13-1.08.4-.32.82-.6,1.26-.83.44-.23.92-.41,1.42-.53.5-.12,1.04-.18,1.62-.18.89,0,1.67.15,2.36.44.68.29,1.25.71,1.71,1.25.46.54.8,1.19,1.04,1.96s.35,1.6.35,2.53v10.38h-2.88v-10.38c0-1.23-.28-2.19-.84-2.87-.56-.68-1.42-1.02-2.57-1.02-.85,0-1.64.2-2.37.61-.73.41-1.41.96-2.03,1.66v12h-2.88v-16.29h1.72c.41,0,.66.2.76.6l.23,1.77Z"/>
    <path class="cls-2" d="M1120.22,73.79c0,.28-.06.54-.17.78-.11.24-.26.46-.45.64s-.41.33-.66.44-.52.16-.8.16-.54-.05-.78-.16c-.24-.11-.45-.25-.64-.44s-.33-.4-.43-.64-.16-.5-.16-.78.05-.54.16-.8.25-.47.43-.66.39-.34.64-.44c.24-.11.5-.16.78-.16s.54.05.8.16c.25.11.47.25.66.44s.34.41.45.66c.11.25.17.52.17.8ZM1119.61,78.91v16.29h-2.86v-16.29h2.86Z"/>
    <path class="cls-2" d="M1138.27,78.91l-6.64,16.29h-2.57l-6.64-16.29h2.33c.24,0,.43.06.58.18.15.12.25.26.31.42l4.13,10.49c.13.4.24.78.34,1.16.1.38.19.75.27,1.13.09-.38.18-.75.27-1.13.1-.38.21-.76.35-1.16l4.18-10.49c.06-.17.17-.31.32-.43s.33-.17.53-.17h2.24Z"/>
    <path class="cls-2" d="M1153.68,92.92c-.35.43-.78.8-1.27,1.12s-1.02.58-1.58.78c-.56.2-1.14.36-1.75.46s-1.2.15-1.79.15c-1.13,0-2.16-.19-3.11-.57-.95-.38-1.77-.94-2.46-1.67-.69-.73-1.23-1.64-1.62-2.73-.39-1.08-.58-2.33-.58-3.73,0-1.14.17-2.2.52-3.18s.85-1.84,1.5-2.57,1.45-1.29,2.4-1.71c.94-.41,2.01-.62,3.19-.62.98,0,1.88.16,2.71.49.83.33,1.55.8,2.16,1.42.61.62,1.08,1.38,1.42,2.28.34.91.52,1.94.52,3.1,0,.45-.05.75-.15.9s-.28.22-.55.22h-10.89c.03,1.03.17,1.93.43,2.69.25.76.6,1.4,1.05,1.91.45.51.99.89,1.61,1.14.62.25,1.32.38,2.09.38.72,0,1.34-.08,1.86-.25.52-.17.97-.35,1.34-.54.38-.19.69-.37.94-.54s.47-.25.65-.25c.24,0,.42.09.55.27l.8,1.05ZM1151.37,85.28c0-.67-.09-1.27-.28-1.83-.19-.55-.46-1.03-.82-1.43-.36-.4-.8-.71-1.31-.93s-1.1-.33-1.75-.33c-1.37,0-2.46.4-3.26,1.2s-1.29,1.91-1.49,3.32h8.91Z"/>
    <path class="cls-2" d="M1160.16,82.18c.51-1.12,1.15-1.99,1.9-2.61.75-.63,1.67-.94,2.75-.94.34,0,.67.04.99.11s.6.19.84.35l-.21,2.14c-.06.27-.22.4-.48.4-.15,0-.37-.03-.66-.1-.29-.06-.62-.1-.98-.1-.51,0-.97.08-1.38.23s-.76.37-1.08.67c-.32.3-.6.66-.85,1.09-.25.43-.48.93-.68,1.49v10.29h-2.88v-16.29h1.64c.31,0,.53.06.64.18.12.12.2.32.24.61l.19,2.48Z"/>
    <path class="cls-2" d="M1178.55,81.6c-.13.24-.33.35-.6.35-.16,0-.34-.06-.55-.18-.2-.12-.45-.25-.75-.39-.29-.15-.65-.28-1.05-.4s-.89-.19-1.45-.19c-.48,0-.92.06-1.3.19-.39.12-.71.29-.99.51-.27.21-.48.46-.63.75-.15.28-.22.59-.22.92,0,.42.12.77.36,1.04.24.28.56.52.96.72.4.2.85.38,1.35.54.5.16,1.02.32,1.55.5.53.18,1.05.37,1.55.59.5.21.95.48,1.35.8.4.32.71.72.96,1.18.24.47.36,1.03.36,1.68,0,.75-.13,1.45-.4,2.08s-.66,1.19-1.19,1.66c-.53.47-1.17.83-1.93,1.1-.76.27-1.64.4-2.64.4-1.14,0-2.17-.19-3.09-.56-.92-.37-1.71-.84-2.35-1.42l.68-1.09c.09-.14.19-.25.31-.32s.27-.11.45-.11c.19,0,.4.08.61.22.21.15.47.32.78.5s.68.35,1.12.5c.44.15.99.22,1.64.22.56,0,1.04-.07,1.46-.22.42-.14.77-.34,1.05-.59.28-.25.48-.53.62-.85.13-.32.2-.67.2-1.03,0-.45-.12-.82-.36-1.12s-.56-.55-.96-.76c-.4-.21-.85-.39-1.36-.55-.51-.16-1.03-.32-1.56-.49-.53-.17-1.05-.37-1.56-.59-.51-.22-.96-.5-1.36-.83-.4-.33-.72-.74-.96-1.23-.24-.49-.36-1.08-.36-1.78,0-.62.13-1.22.39-1.79.26-.57.63-1.08,1.13-1.51.49-.43,1.1-.78,1.82-1.04s1.54-.39,2.46-.39c1.07,0,2.04.17,2.89.51.85.34,1.59.8,2.21,1.39l-.64,1.05Z"/>
    <path class="cls-2" d="M1186.62,73.79c0,.28-.06.54-.17.78s-.26.46-.45.64-.41.33-.66.44-.52.16-.8.16-.54-.05-.78-.16c-.24-.11-.45-.25-.63-.44-.18-.19-.33-.4-.43-.64-.11-.24-.16-.5-.16-.78s.05-.54.16-.8c.11-.25.25-.47.43-.66.18-.19.39-.34.63-.44.24-.11.5-.16.78-.16s.54.05.8.16c.25.11.47.25.66.44s.34.41.45.66.17.52.17.8ZM1186.01,78.91v16.29h-2.86v-16.29h2.86Z"/>
    <path class="cls-2" d="M1204.19,71.51v23.69h-1.71c-.41,0-.66-.2-.77-.59l-.26-1.98c-.7.84-1.49,1.51-2.38,2.03-.89.51-1.92.77-3.09.77-.93,0-1.78-.18-2.54-.54s-1.41-.89-1.95-1.58c-.54-.7-.95-1.57-1.24-2.61-.29-1.04-.43-2.24-.43-3.59,0-1.2.16-2.32.48-3.35.32-1.03.78-1.93,1.38-2.69.6-.76,1.34-1.36,2.21-1.79s1.86-.65,2.95-.65c1,0,1.85.17,2.57.51.71.34,1.35.81,1.91,1.41v-9.02h2.86ZM1201.33,82.79c-.54-.72-1.12-1.22-1.74-1.5-.62-.28-1.32-.43-2.09-.43-1.51,0-2.68.54-3.49,1.62s-1.22,2.63-1.22,4.63c0,1.06.09,1.97.27,2.73.18.76.45,1.38.8,1.87.35.49.79.84,1.3,1.07.51.22,1.1.34,1.75.34.94,0,1.77-.21,2.47-.64.7-.43,1.35-1.04,1.94-1.82v-7.87Z"/>
    <path class="cls-2" d="M1208.31,81.21c.9-.87,1.87-1.52,2.91-1.95s2.19-.64,3.46-.64c.91,0,1.72.15,2.43.45.71.3,1.3.72,1.79,1.25s.85,1.18,1.09,1.95.37,1.6.37,2.51v10.42h-1.27c-.28,0-.49-.05-.64-.14-.15-.09-.27-.27-.35-.54l-.32-1.54c-.43.4-.85.75-1.25,1.05-.41.31-.84.56-1.29.77-.45.21-.93.37-1.44.48-.51.11-1.07.17-1.7.17s-1.23-.09-1.79-.27-1.04-.44-1.46-.8c-.41-.35-.74-.8-.98-1.34-.24-.54-.36-1.18-.36-1.92,0-.64.18-1.26.53-1.86.35-.59.93-1.12,1.72-1.58s1.83-.84,3.1-1.13c1.28-.29,2.84-.46,4.7-.51v-1.27c0-1.26-.27-2.22-.82-2.87-.55-.65-1.35-.97-2.4-.97-.71,0-1.3.09-1.78.26-.48.18-.89.38-1.24.6s-.65.42-.9.59c-.25.18-.5.27-.75.27-.19,0-.36-.05-.5-.15-.14-.1-.26-.23-.35-.38l-.51-.92ZM1217.56,87.87c-1.32.04-2.44.15-3.37.31-.93.17-1.68.38-2.27.65-.58.27-1.01.58-1.27.95-.26.37-.39.77-.39,1.22s.07.8.21,1.11c.14.31.33.57.57.76.24.2.53.34.85.43.33.09.68.14,1.05.14.5,0,.96-.05,1.38-.15.42-.1.81-.25,1.18-.44s.72-.42,1.06-.69.67-.57.99-.92v-3.38Z"/>
    <path class="cls-2" d="M1238.2,71.51v23.69h-1.71c-.41,0-.67-.2-.77-.59l-.26-1.98c-.7.84-1.49,1.51-2.38,2.03-.89.51-1.92.77-3.09.77-.93,0-1.78-.18-2.54-.54-.76-.36-1.41-.89-1.95-1.58-.54-.7-.95-1.57-1.24-2.61-.29-1.04-.44-2.24-.44-3.59,0-1.2.16-2.32.48-3.35.32-1.03.78-1.93,1.38-2.69.6-.76,1.34-1.36,2.21-1.79s1.86-.65,2.95-.65c1,0,1.85.17,2.57.51s1.35.81,1.91,1.41v-9.02h2.86ZM1235.33,82.79c-.54-.72-1.12-1.22-1.74-1.5s-1.32-.43-2.09-.43c-1.51,0-2.68.54-3.49,1.62s-1.22,2.63-1.22,4.63c0,1.06.09,1.97.27,2.73.18.76.45,1.38.8,1.87.35.49.79.84,1.3,1.07.51.22,1.1.34,1.75.34.94,0,1.77-.21,2.47-.64s1.35-1.04,1.94-1.82v-7.87Z"/>
    <path class="cls-2" d="M1250.55,81.21c.9-.87,1.87-1.52,2.91-1.95s2.19-.64,3.46-.64c.91,0,1.72.15,2.43.45.71.3,1.3.72,1.79,1.25s.85,1.18,1.09,1.95.37,1.6.37,2.51v10.42h-1.27c-.28,0-.49-.05-.64-.14-.15-.09-.27-.27-.35-.54l-.32-1.54c-.43.4-.85.75-1.25,1.05-.41.31-.84.56-1.29.77-.45.21-.93.37-1.44.48-.51.11-1.07.17-1.7.17s-1.23-.09-1.79-.27-1.04-.44-1.46-.8c-.41-.35-.74-.8-.98-1.34-.24-.54-.36-1.18-.36-1.92,0-.64.18-1.26.53-1.86.35-.59.93-1.12,1.72-1.58s1.83-.84,3.1-1.13c1.28-.29,2.84-.46,4.7-.51v-1.27c0-1.26-.27-2.22-.82-2.87-.55-.65-1.35-.97-2.4-.97-.71,0-1.3.09-1.78.26-.48.18-.89.38-1.24.6s-.65.42-.9.59c-.25.18-.5.27-.75.27-.19,0-.36-.05-.5-.15-.14-.1-.26-.23-.35-.38l-.51-.92ZM1259.8,87.87c-1.32.04-2.44.15-3.37.31-.93.17-1.68.38-2.27.65-.58.27-1.01.58-1.27.95-.26.37-.39.77-.39,1.22s.07.8.21,1.11c.14.31.33.57.57.76.24.2.53.34.85.43.33.09.68.14,1.05.14.5,0,.96-.05,1.38-.15.42-.1.81-.25,1.18-.44s.72-.42,1.06-.69.67-.57.99-.92v-3.38Z"/>
    <path class="cls-2" d="M1278.3,81.81c-.09.12-.17.21-.26.27-.09.06-.21.1-.35.1-.16,0-.34-.07-.53-.2-.19-.13-.43-.28-.72-.44-.28-.16-.63-.31-1.04-.44-.41-.13-.92-.2-1.52-.2-.8,0-1.51.14-2.12.43s-1.12.69-1.54,1.23c-.41.54-.72,1.18-.93,1.95-.21.76-.31,1.61-.31,2.56s.11,1.86.34,2.63c.22.77.54,1.41.96,1.93.41.52.91.92,1.5,1.19.58.27,1.24.41,1.97.41s1.27-.08,1.72-.25c.45-.17.82-.35,1.12-.55s.54-.39.74-.55c.2-.17.39-.25.59-.25.24,0,.42.09.55.27l.8,1.05c-.35.44-.76.82-1.21,1.13-.45.31-.94.57-1.46.78s-1.06.36-1.63.46c-.57.1-1.15.15-1.74.15-1.02,0-1.96-.19-2.84-.56-.87-.38-1.63-.92-2.28-1.63-.64-.71-1.15-1.59-1.51-2.63-.37-1.04-.55-2.22-.55-3.55,0-1.21.17-2.33.51-3.36s.83-1.92,1.48-2.66c.65-.75,1.45-1.33,2.4-1.75s2.04-.63,3.27-.63c1.15,0,2.16.18,3.03.55s1.65.89,2.32,1.57l-.76,1.03Z"/>
    <path class="cls-2" d="M1285.04,82.18c.52-1.12,1.15-1.99,1.9-2.61.75-.63,1.67-.94,2.75-.94.34,0,.67.04.99.11s.6.19.84.35l-.21,2.14c-.06.27-.22.4-.48.4-.15,0-.37-.03-.66-.1-.29-.06-.62-.1-.98-.1-.51,0-.97.08-1.38.23s-.76.37-1.08.67c-.32.3-.6.66-.85,1.09-.25.43-.48.93-.68,1.49v10.29h-2.88v-16.29h1.64c.31,0,.53.06.64.18.12.12.2.32.24.61l.19,2.48Z"/>
    <path class="cls-2" d="M1306.59,92.92c-.35.43-.78.8-1.27,1.12-.49.32-1.02.58-1.58.78-.56.2-1.15.36-1.75.46-.6.1-1.2.15-1.79.15-1.13,0-2.16-.19-3.11-.57s-1.77-.94-2.46-1.67-1.23-1.64-1.62-2.73c-.38-1.08-.58-2.33-.58-3.73,0-1.14.17-2.2.52-3.18s.85-1.84,1.5-2.57c.65-.72,1.45-1.29,2.4-1.71.94-.41,2-.62,3.18-.62.98,0,1.88.16,2.71.49s1.55.8,2.16,1.42c.61.62,1.08,1.38,1.42,2.28s.51,1.94.51,3.1c0,.45-.05.75-.14.9s-.28.22-.55.22h-10.89c.03,1.03.17,1.93.43,2.69.25.76.6,1.4,1.05,1.91.45.51.99.89,1.61,1.14.62.25,1.32.38,2.09.38.72,0,1.34-.08,1.86-.25.52-.17.97-.35,1.34-.54.38-.19.69-.37.94-.54s.47-.25.65-.25c.24,0,.42.09.55.27l.8,1.05ZM1304.27,85.28c0-.67-.09-1.27-.28-1.83-.19-.55-.46-1.03-.82-1.43-.36-.4-.8-.71-1.31-.93s-1.1-.33-1.75-.33c-1.37,0-2.46.4-3.26,1.2s-1.29,1.91-1.49,3.32h8.91Z"/>
    <path class="cls-2" d="M1323.83,71.51v23.69h-1.71c-.41,0-.67-.2-.77-.59l-.26-1.98c-.7.84-1.49,1.51-2.38,2.03s-1.92.77-3.09.77c-.93,0-1.78-.18-2.54-.54-.76-.36-1.41-.89-1.95-1.58-.54-.7-.95-1.57-1.24-2.61s-.43-2.24-.43-3.59c0-1.2.16-2.32.48-3.35.32-1.03.78-1.93,1.38-2.69.6-.76,1.34-1.36,2.21-1.79.88-.43,1.86-.65,2.95-.65,1,0,1.85.17,2.57.51s1.35.81,1.91,1.41v-9.02h2.86ZM1320.97,82.79c-.54-.72-1.12-1.22-1.74-1.5-.62-.28-1.32-.43-2.09-.43-1.51,0-2.68.54-3.49,1.62-.82,1.08-1.22,2.63-1.22,4.63,0,1.06.09,1.97.27,2.73.18.76.45,1.38.8,1.87.35.49.79.84,1.3,1.07.51.22,1.1.34,1.75.34.94,0,1.77-.21,2.47-.64.7-.43,1.35-1.04,1.94-1.82v-7.87Z"/>
    <path class="cls-2" d="M1332.01,73.79c0,.28-.06.54-.17.78-.11.24-.26.46-.45.64-.19.19-.41.33-.66.44s-.52.16-.8.16-.54-.05-.78-.16-.45-.25-.64-.44-.33-.4-.43-.64-.16-.5-.16-.78.05-.54.16-.8.25-.47.43-.66.39-.34.64-.44c.24-.11.5-.16.78-.16s.54.05.8.16c.25.11.47.25.66.44.19.19.34.41.45.66.11.25.17.52.17.8ZM1331.39,78.91v16.29h-2.86v-16.29h2.86Z"/>
    <path class="cls-2" d="M1341.09,95.46c-1.29,0-2.28-.36-2.97-1.08-.69-.72-1.04-1.75-1.04-3.1v-9.97h-1.96c-.17,0-.32-.05-.43-.15-.12-.1-.18-.26-.18-.47v-1.14l2.67-.34.66-5.04c.03-.16.11-.29.22-.39.11-.1.26-.15.44-.15h1.45v5.61h4.71v2.08h-4.71v9.78c0,.69.17,1.2.5,1.53.33.33.76.5,1.29.5.3,0,.56-.04.78-.12.22-.08.41-.17.57-.27.16-.1.3-.18.41-.26.11-.08.21-.12.3-.12.15,0,.28.09.4.27l.84,1.37c-.49.46-1.09.82-1.79,1.09-.7.26-1.42.39-2.16.39Z"/>
    <path class="cls-2" d="M1347.21,81.21c.9-.87,1.87-1.52,2.91-1.95s2.19-.64,3.46-.64c.91,0,1.72.15,2.43.45.71.3,1.3.72,1.79,1.25s.85,1.18,1.09,1.95.37,1.6.37,2.51v10.42h-1.27c-.28,0-.49-.05-.64-.14s-.27-.27-.35-.54l-.32-1.54c-.43.4-.85.75-1.25,1.05-.41.31-.84.56-1.29.77-.45.21-.93.37-1.44.48-.51.11-1.08.17-1.7.17s-1.23-.09-1.79-.27-1.04-.44-1.46-.8c-.41-.35-.74-.8-.98-1.34-.24-.54-.36-1.18-.36-1.92,0-.64.18-1.26.53-1.86.35-.59.93-1.12,1.72-1.58s1.83-.84,3.1-1.13c1.28-.29,2.84-.46,4.7-.51v-1.27c0-1.26-.27-2.22-.82-2.87-.55-.65-1.35-.97-2.4-.97-.71,0-1.3.09-1.78.26-.48.18-.89.38-1.24.6s-.65.42-.9.59c-.25.18-.5.27-.75.27-.19,0-.36-.05-.5-.15-.14-.1-.26-.23-.35-.38l-.52-.92ZM1356.46,87.87c-1.32.04-2.44.15-3.37.31-.93.17-1.68.38-2.27.65-.58.27-1.01.58-1.27.95-.26.37-.39.77-.39,1.22s.07.8.21,1.11c.14.31.33.57.57.76.24.2.53.34.85.43.33.09.68.14,1.05.14.5,0,.97-.05,1.38-.15.42-.1.81-.25,1.18-.44.37-.19.72-.42,1.06-.69s.67-.57.99-.92v-3.38Z"/>
    <path class="cls-2" d="M1377.09,71.51v23.69h-1.71c-.41,0-.66-.2-.77-.59l-.26-1.98c-.7.84-1.49,1.51-2.38,2.03-.89.51-1.92.77-3.09.77-.93,0-1.78-.18-2.54-.54s-1.41-.89-1.95-1.58c-.54-.7-.95-1.57-1.24-2.61-.29-1.04-.43-2.24-.43-3.59,0-1.2.16-2.32.48-3.35.32-1.03.78-1.93,1.38-2.69.6-.76,1.34-1.36,2.21-1.79s1.86-.65,2.95-.65c1,0,1.85.17,2.57.51.71.34,1.35.81,1.91,1.41v-9.02h2.86ZM1374.23,82.79c-.54-.72-1.12-1.22-1.74-1.5-.62-.28-1.32-.43-2.09-.43-1.51,0-2.68.54-3.49,1.62s-1.22,2.63-1.22,4.63c0,1.06.09,1.97.27,2.73.18.76.45,1.38.8,1.87.35.49.79.84,1.3,1.07.51.22,1.1.34,1.75.34.94,0,1.77-.21,2.47-.64.7-.43,1.35-1.04,1.94-1.82v-7.87Z"/>
    <path class="cls-2" d="M1381.21,81.21c.9-.87,1.87-1.52,2.91-1.95,1.04-.43,2.19-.64,3.46-.64.91,0,1.72.15,2.43.45.71.3,1.3.72,1.79,1.25s.85,1.18,1.09,1.95c.25.76.37,1.6.37,2.51v10.42h-1.27c-.28,0-.49-.05-.64-.14s-.27-.27-.35-.54l-.32-1.54c-.43.4-.85.75-1.25,1.05-.41.31-.84.56-1.29.77-.45.21-.93.37-1.44.48-.51.11-1.08.17-1.7.17s-1.23-.09-1.79-.27c-.56-.18-1.04-.44-1.46-.8-.41-.35-.74-.8-.98-1.34-.24-.54-.36-1.18-.36-1.92,0-.64.18-1.26.53-1.86.35-.59.93-1.12,1.72-1.58.79-.46,1.83-.84,3.1-1.13,1.28-.29,2.84-.46,4.7-.51v-1.27c0-1.26-.27-2.22-.82-2.87-.55-.65-1.35-.97-2.4-.97-.71,0-1.3.09-1.78.26-.48.18-.89.38-1.24.6-.35.22-.65.42-.9.59-.25.18-.5.27-.75.27-.19,0-.36-.05-.5-.15-.14-.1-.26-.23-.35-.38l-.51-.92ZM1390.46,87.87c-1.32.04-2.44.15-3.37.31-.93.17-1.68.38-2.27.65-.58.27-1.01.58-1.27.95-.26.37-.39.77-.39,1.22s.07.8.21,1.11c.14.31.33.57.57.76s.53.34.85.43c.33.09.68.14,1.05.14.5,0,.97-.05,1.38-.15.42-.1.81-.25,1.18-.44.37-.19.72-.42,1.06-.69s.67-.57.99-.92v-3.38Z"/>
    <path class="cls-2" d="M1419.08,92.92c-.35.43-.78.8-1.27,1.12-.49.32-1.02.58-1.58.78-.56.2-1.15.36-1.75.46s-1.2.15-1.79.15c-1.13,0-2.16-.19-3.11-.57-.95-.38-1.77-.94-2.46-1.67-.69-.73-1.23-1.64-1.62-2.73s-.58-2.33-.58-3.73c0-1.14.17-2.2.52-3.18.35-.99.85-1.84,1.5-2.57.65-.72,1.45-1.29,2.4-1.71s2-.62,3.18-.62c.98,0,1.88.16,2.71.49.83.33,1.55.8,2.16,1.42.61.62,1.08,1.38,1.42,2.28.34.91.51,1.94.51,3.1,0,.45-.05.75-.14.9-.1.15-.28.22-.55.22h-10.89c.03,1.03.17,1.93.43,2.69.25.76.6,1.4,1.05,1.91.45.51.99.89,1.61,1.14.62.25,1.32.38,2.09.38.72,0,1.34-.08,1.86-.25.52-.17.97-.35,1.34-.54.38-.19.69-.37.94-.54s.47-.25.65-.25c.24,0,.42.09.55.27l.8,1.05ZM1416.76,85.28c0-.67-.09-1.27-.28-1.83-.19-.55-.46-1.03-.82-1.43-.36-.4-.8-.71-1.31-.93-.51-.22-1.1-.33-1.75-.33-1.37,0-2.46.4-3.26,1.2s-1.29,1.91-1.49,3.32h8.91Z"/>
    <path class="cls-2" d="M1425.54,81.28c.35-.4.73-.76,1.13-1.08s.82-.6,1.26-.83c.44-.23.92-.41,1.42-.53s1.04-.18,1.62-.18c.89,0,1.68.15,2.36.44.68.29,1.25.71,1.71,1.25.46.54.8,1.19,1.04,1.96.24.76.35,1.6.35,2.53v10.38h-2.88v-10.38c0-1.23-.28-2.19-.84-2.87-.56-.68-1.42-1.02-2.57-1.02-.85,0-1.64.2-2.37.61-.73.41-1.41.96-2.04,1.66v12h-2.88v-16.29h1.72c.41,0,.66.2.76.6l.23,1.77Z"/>
    <path class="cls-2" d="M1448.61,81.21c.9-.87,1.87-1.52,2.91-1.95,1.04-.43,2.19-.64,3.46-.64.91,0,1.72.15,2.43.45.71.3,1.3.72,1.79,1.25s.85,1.18,1.09,1.95c.25.76.37,1.6.37,2.51v10.42h-1.27c-.28,0-.49-.05-.64-.14s-.27-.27-.35-.54l-.32-1.54c-.43.4-.85.75-1.25,1.05-.41.31-.84.56-1.29.77-.45.21-.93.37-1.44.48-.51.11-1.08.17-1.7.17s-1.23-.09-1.79-.27c-.56-.18-1.04-.44-1.46-.8-.41-.35-.74-.8-.98-1.34-.24-.54-.36-1.18-.36-1.92,0-.64.18-1.26.53-1.86.35-.59.93-1.12,1.72-1.58.79-.46,1.83-.84,3.1-1.13,1.28-.29,2.84-.46,4.7-.51v-1.27c0-1.26-.27-2.22-.82-2.87-.55-.65-1.35-.97-2.4-.97-.71,0-1.3.09-1.78.26-.48.18-.89.38-1.24.6-.35.22-.65.42-.9.59-.25.18-.5.27-.75.27-.19,0-.36-.05-.5-.15-.14-.1-.26-.23-.35-.38l-.51-.92ZM1457.86,87.87c-1.32.04-2.44.15-3.37.31-.93.17-1.68.38-2.27.65-.58.27-1.01.58-1.27.95-.26.37-.39.77-.39,1.22s.07.8.21,1.11c.14.31.33.57.57.76s.53.34.85.43c.33.09.68.14,1.05.14.5,0,.97-.05,1.38-.15.42-.1.81-.25,1.18-.44.37-.19.72-.42,1.06-.69s.67-.57.99-.92v-3.38Z"/>
    <path class="cls-2" d="M1467.98,71.51v23.69h-2.86v-23.69h2.86Z"/>
    <path class="cls-2" d="M1477.61,95.46c-1.29,0-2.28-.36-2.97-1.08s-1.04-1.75-1.04-3.1v-9.97h-1.96c-.17,0-.32-.05-.43-.15-.12-.1-.18-.26-.18-.47v-1.14l2.67-.34.66-5.04c.03-.16.1-.29.22-.39.11-.1.26-.15.44-.15h1.45v5.61h4.71v2.08h-4.71v9.78c0,.69.17,1.2.5,1.53.33.33.76.5,1.29.5.3,0,.56-.04.78-.12.22-.08.41-.17.57-.27.16-.1.3-.18.41-.26.11-.08.21-.12.3-.12.15,0,.28.09.4.27l.84,1.37c-.49.46-1.09.82-1.79,1.09s-1.42.39-2.16.39Z"/>
    <path class="cls-2" d="M1483.72,81.21c.9-.87,1.87-1.52,2.91-1.95,1.04-.43,2.19-.64,3.46-.64.91,0,1.72.15,2.43.45.71.3,1.3.72,1.79,1.25s.85,1.18,1.09,1.95c.25.76.37,1.6.37,2.51v10.42h-1.27c-.28,0-.49-.05-.64-.14-.15-.09-.27-.27-.35-.54l-.32-1.54c-.43.4-.85.75-1.25,1.05s-.84.56-1.29.77c-.45.21-.93.37-1.44.48-.51.11-1.08.17-1.7.17s-1.23-.09-1.79-.27c-.56-.18-1.04-.44-1.46-.8-.41-.35-.74-.8-.98-1.34-.24-.54-.36-1.18-.36-1.92,0-.64.18-1.26.53-1.86.35-.59.93-1.12,1.72-1.58.79-.46,1.83-.84,3.11-1.13,1.28-.29,2.84-.46,4.7-.51v-1.27c0-1.26-.27-2.22-.82-2.87-.55-.65-1.35-.97-2.4-.97-.71,0-1.3.09-1.78.26-.48.18-.89.38-1.24.6-.35.22-.65.42-.9.59-.25.18-.5.27-.75.27-.19,0-.36-.05-.5-.15-.14-.1-.26-.23-.35-.38l-.52-.92ZM1492.97,87.87c-1.32.04-2.44.15-3.37.31-.93.17-1.68.38-2.27.65-.58.27-1.01.58-1.27.95-.26.37-.39.77-.39,1.22s.07.8.21,1.11c.14.31.33.57.57.76.24.2.53.34.85.43.33.09.68.14,1.05.14.5,0,.96-.05,1.38-.15.42-.1.81-.25,1.18-.44.37-.19.72-.42,1.06-.69s.67-.57.99-.92v-3.38Z"/>
    <path class="cls-2" d="M1519.71,81.81c-.09.12-.17.21-.26.27-.09.06-.21.1-.35.1-.16,0-.34-.07-.53-.2-.19-.13-.43-.28-.72-.44-.28-.16-.63-.31-1.04-.44-.41-.13-.92-.2-1.52-.2-.8,0-1.51.14-2.12.43s-1.12.69-1.54,1.23c-.41.54-.72,1.18-.93,1.95-.21.76-.31,1.61-.31,2.56s.11,1.86.34,2.63c.22.77.54,1.41.96,1.93.41.52.91.92,1.5,1.19.58.27,1.24.41,1.97.41s1.27-.08,1.72-.25c.45-.17.82-.35,1.12-.55s.54-.39.74-.55c.2-.17.39-.25.59-.25.24,0,.42.09.55.27l.8,1.05c-.35.44-.76.82-1.21,1.13-.45.31-.94.57-1.46.78s-1.06.36-1.63.46c-.57.1-1.15.15-1.74.15-1.02,0-1.96-.19-2.84-.56-.87-.38-1.63-.92-2.28-1.63-.64-.71-1.15-1.59-1.51-2.63-.37-1.04-.55-2.22-.55-3.55,0-1.21.17-2.33.51-3.36s.83-1.92,1.48-2.66c.65-.75,1.45-1.33,2.4-1.75s2.04-.63,3.27-.63c1.15,0,2.16.18,3.03.55s1.65.89,2.32,1.57l-.76,1.03Z"/>
    <path class="cls-2" d="M1523.31,81.21c.9-.87,1.87-1.52,2.91-1.95,1.04-.43,2.19-.64,3.46-.64.91,0,1.72.15,2.43.45.71.3,1.3.72,1.79,1.25s.85,1.18,1.09,1.95c.25.76.37,1.6.37,2.51v10.42h-1.27c-.28,0-.49-.05-.64-.14-.15-.09-.27-.27-.35-.54l-.32-1.54c-.43.4-.85.75-1.25,1.05s-.84.56-1.29.77c-.45.21-.93.37-1.44.48-.51.11-1.08.17-1.7.17s-1.23-.09-1.79-.27c-.56-.18-1.04-.44-1.46-.8-.41-.35-.74-.8-.98-1.34-.24-.54-.36-1.18-.36-1.92,0-.64.18-1.26.53-1.86.35-.59.93-1.12,1.72-1.58.79-.46,1.83-.84,3.11-1.13,1.28-.29,2.84-.46,4.7-.51v-1.27c0-1.26-.27-2.22-.82-2.87-.55-.65-1.35-.97-2.4-.97-.71,0-1.3.09-1.78.26-.48.18-.89.38-1.24.6-.35.22-.65.42-.9.59-.25.18-.5.27-.75.27-.19,0-.36-.05-.5-.15-.14-.1-.26-.23-.35-.38l-.52-.92ZM1532.56,87.87c-1.32.04-2.44.15-3.37.31-.93.17-1.68.38-2.27.65-.58.27-1.01.58-1.27.95-.26.37-.39.77-.39,1.22s.07.8.21,1.11c.14.31.33.57.57.76.24.2.53.34.85.43.33.09.68.14,1.05.14.5,0,.96-.05,1.38-.15.42-.1.81-.25,1.18-.44.37-.19.72-.42,1.06-.69s.67-.57.99-.92v-3.38Z"/>
    <path class="cls-2" d="M1542.68,71.51v23.69h-2.86v-23.69h2.86Z"/>
    <path class="cls-2" d="M1550.94,73.79c0,.28-.06.54-.17.78s-.26.46-.45.64-.41.33-.66.44-.52.16-.8.16-.54-.05-.78-.16c-.24-.11-.45-.25-.63-.44-.18-.19-.33-.4-.43-.64-.11-.24-.16-.5-.16-.78s.05-.54.16-.8c.11-.25.25-.47.43-.66.18-.19.39-.34.63-.44.24-.11.5-.16.78-.16s.54.05.8.16c.25.11.47.25.66.44s.34.41.45.66.17.52.17.8ZM1550.33,78.91v16.29h-2.86v-16.29h2.86Z"/>
    <path class="cls-2" d="M1568.51,71.51v23.69h-1.71c-.41,0-.66-.2-.77-.59l-.26-1.98c-.7.84-1.49,1.51-2.38,2.03-.89.51-1.92.77-3.09.77-.93,0-1.78-.18-2.54-.54s-1.41-.89-1.95-1.58c-.54-.7-.95-1.57-1.24-2.61-.29-1.04-.43-2.24-.43-3.59,0-1.2.16-2.32.48-3.35.32-1.03.78-1.93,1.38-2.69.6-.76,1.34-1.36,2.21-1.79s1.86-.65,2.95-.65c1,0,1.85.17,2.57.51.71.34,1.35.81,1.91,1.41v-9.02h2.86ZM1565.65,82.79c-.54-.72-1.12-1.22-1.74-1.5-.62-.28-1.32-.43-2.09-.43-1.51,0-2.68.54-3.49,1.62s-1.22,2.63-1.22,4.63c0,1.06.09,1.97.27,2.73.18.76.45,1.38.8,1.87.35.49.79.84,1.3,1.07.51.22,1.1.34,1.75.34.94,0,1.77-.21,2.47-.64.7-.43,1.35-1.04,1.94-1.82v-7.87Z"/>
    <path class="cls-2" d="M1572.63,81.21c.9-.87,1.87-1.52,2.91-1.95,1.04-.43,2.19-.64,3.46-.64.91,0,1.72.15,2.43.45.71.3,1.3.72,1.79,1.25s.85,1.18,1.09,1.95c.25.76.37,1.6.37,2.51v10.42h-1.27c-.28,0-.49-.05-.64-.14s-.27-.27-.35-.54l-.32-1.54c-.43.4-.85.75-1.25,1.05-.41.31-.84.56-1.29.77-.45.21-.93.37-1.44.48-.51.11-1.08.17-1.7.17s-1.23-.09-1.79-.27c-.56-.18-1.04-.44-1.46-.8-.41-.35-.74-.8-.98-1.34-.24-.54-.36-1.18-.36-1.92,0-.64.18-1.26.53-1.86.35-.59.93-1.12,1.72-1.58.79-.46,1.83-.84,3.1-1.13,1.28-.29,2.84-.46,4.7-.51v-1.27c0-1.26-.27-2.22-.82-2.87-.55-.65-1.35-.97-2.4-.97-.71,0-1.3.09-1.78.26-.48.18-.89.38-1.24.6-.35.22-.65.42-.9.59-.25.18-.5.27-.75.27-.19,0-.36-.05-.5-.15-.14-.1-.26-.23-.35-.38l-.51-.92ZM1581.88,87.87c-1.32.04-2.44.15-3.37.31-.93.17-1.68.38-2.27.65-.58.27-1.01.58-1.27.95-.26.37-.39.77-.39,1.22s.07.8.21,1.11c.14.31.33.57.57.76s.53.34.85.43c.33.09.68.14,1.05.14.5,0,.97-.05,1.38-.15.42-.1.81-.25,1.18-.44.37-.19.72-.42,1.06-.69s.67-.57.99-.92v-3.38Z"/>
    <path class="cls-2" d="M1602.51,71.51v23.69h-1.71c-.41,0-.67-.2-.77-.59l-.26-1.98c-.7.84-1.49,1.51-2.38,2.03-.89.51-1.92.77-3.09.77-.93,0-1.78-.18-2.54-.54-.76-.36-1.41-.89-1.95-1.58-.54-.7-.95-1.57-1.24-2.61-.29-1.04-.44-2.24-.44-3.59,0-1.2.16-2.32.48-3.35.32-1.03.78-1.93,1.38-2.69.6-.76,1.34-1.36,2.21-1.79s1.86-.65,2.95-.65c1,0,1.85.17,2.57.51s1.35.81,1.91,1.41v-9.02h2.86ZM1599.65,82.79c-.54-.72-1.12-1.22-1.74-1.5s-1.32-.43-2.09-.43c-1.51,0-2.68.54-3.49,1.62s-1.22,2.63-1.22,4.63c0,1.06.09,1.97.27,2.73.18.76.45,1.38.8,1.87.35.49.79.84,1.3,1.07.51.22,1.1.34,1.75.34.94,0,1.77-.21,2.47-.64s1.35-1.04,1.94-1.82v-7.87Z"/>
    <path class="cls-2" d="M1628.76,78.91v21.81h-2.86v-7.95c-.68.79-1.45,1.43-2.33,1.92-.88.49-1.88.73-3.01.73-.93,0-1.78-.18-2.54-.54s-1.41-.89-1.95-1.58c-.54-.7-.95-1.57-1.24-2.61s-.43-2.24-.43-3.59c0-1.2.16-2.32.48-3.35.32-1.03.78-1.93,1.38-2.69.6-.76,1.34-1.36,2.21-1.79.87-.43,1.86-.65,2.95-.65s1.96.19,2.7.56c.74.38,1.39.9,1.96,1.58l.19-1.25c.11-.4.37-.6.77-.6h1.71ZM1625.9,82.77c-.52-.69-1.09-1.18-1.72-1.47-.63-.29-1.33-.44-2.11-.44-1.51,0-2.68.54-3.49,1.62-.81,1.08-1.22,2.63-1.22,4.63,0,1.06.09,1.97.27,2.73s.45,1.38.8,1.87c.35.49.79.84,1.3,1.07.52.22,1.1.34,1.75.34.94,0,1.77-.21,2.47-.64.7-.43,1.35-1.04,1.94-1.82v-7.88Z"/>
    <path class="cls-2" d="M1646.7,78.91v16.29h-1.71c-.41,0-.67-.2-.77-.59l-.22-1.75c-.71.78-1.5,1.41-2.38,1.89-.88.48-1.89.72-3.02.72-.89,0-1.67-.15-2.36-.44-.68-.29-1.25-.71-1.71-1.25s-.81-1.18-1.04-1.95c-.23-.76-.35-1.6-.35-2.53v-10.39h2.86v10.39c0,1.23.28,2.19.84,2.86s1.42,1.01,2.58,1.01c.85,0,1.64-.2,2.37-.6.73-.4,1.41-.96,2.03-1.67v-12h2.86Z"/>
    <path class="cls-2" d="M1664.46,92.92c-.35.43-.78.8-1.27,1.12-.49.32-1.02.58-1.58.78-.56.2-1.15.36-1.75.46s-1.2.15-1.79.15c-1.13,0-2.16-.19-3.11-.57-.95-.38-1.77-.94-2.46-1.67-.69-.73-1.23-1.64-1.62-2.73s-.58-2.33-.58-3.73c0-1.14.17-2.2.52-3.18.35-.99.85-1.84,1.5-2.57.65-.72,1.45-1.29,2.4-1.71s2-.62,3.18-.62c.98,0,1.88.16,2.71.49.83.33,1.55.8,2.16,1.42.61.62,1.08,1.38,1.42,2.28.34.91.51,1.94.51,3.1,0,.45-.05.75-.14.9-.1.15-.28.22-.55.22h-10.89c.03,1.03.17,1.93.43,2.69.25.76.6,1.4,1.05,1.91.45.51.99.89,1.61,1.14.62.25,1.32.38,2.09.38.72,0,1.34-.08,1.86-.25.52-.17.97-.35,1.34-.54.38-.19.69-.37.94-.54s.47-.25.65-.25c.24,0,.42.09.55.27l.8,1.05ZM1662.14,85.28c0-.67-.09-1.27-.28-1.83-.19-.55-.46-1.03-.82-1.43-.36-.4-.8-.71-1.31-.93-.51-.22-1.1-.33-1.75-.33-1.37,0-2.46.4-3.26,1.2s-1.29,1.91-1.49,3.32h8.91Z"/>
    <path class="cls-2" d="M1084.34,107.71c0,.28-.06.54-.17.78-.11.24-.26.46-.45.64s-.41.33-.66.44-.52.16-.8.16-.54-.05-.78-.16c-.24-.11-.45-.25-.64-.44s-.33-.4-.43-.64-.16-.5-.16-.78.05-.54.16-.8.25-.47.43-.66.39-.34.64-.44c.24-.11.5-.16.78-.16s.54.05.8.16c.25.11.47.25.66.44s.34.41.45.66c.11.25.17.52.17.8ZM1083.73,112.82v16.29h-2.86v-16.29h2.86Z"/>
    <path class="cls-2" d="M1088.42,129.12v-16.29h1.72c.41,0,.66.2.76.6l.21,1.67c.6-.74,1.28-1.35,2.03-1.82.75-.47,1.62-.71,2.61-.71,1.09,0,1.98.31,2.66.92.68.61,1.17,1.44,1.47,2.48.24-.59.54-1.1.91-1.53.37-.43.79-.78,1.25-1.06.46-.28.95-.48,1.47-.61.52-.13,1.05-.19,1.58-.19.86,0,1.62.14,2.29.41.67.27,1.24.67,1.71,1.2.47.53.82,1.17,1.07,1.94.25.77.37,1.64.37,2.63v10.38h-2.88v-10.38c0-1.28-.28-2.24-.84-2.9-.56-.66-1.36-.99-2.41-.99-.47,0-.92.08-1.34.25-.42.17-.8.41-1.12.73-.32.32-.58.73-.76,1.21s-.28,1.05-.28,1.7v10.38h-2.88v-10.38c0-1.31-.26-2.28-.79-2.93-.53-.64-1.29-.96-2.3-.96-.71,0-1.36.19-1.96.57-.6.38-1.15.9-1.66,1.55v12.14h-2.88Z"/>
    <path class="cls-2" d="M1117.62,115.35c.69-.85,1.48-1.53,2.38-2.04.9-.51,1.93-.77,3.09-.77.94,0,1.8.18,2.56.54s1.41.89,1.95,1.59c.54.7.95,1.57,1.24,2.61.29,1.04.43,2.24.43,3.59,0,1.2-.16,2.32-.48,3.35-.32,1.04-.79,1.93-1.39,2.69-.61.76-1.35,1.35-2.22,1.79-.87.43-1.86.65-2.95.65-1,0-1.85-.17-2.57-.51s-1.34-.81-1.89-1.41v7.21h-2.88v-21.81h1.72c.41,0,.66.2.76.6l.26,1.93ZM1117.76,125.19c.53.71,1.1,1.21,1.72,1.5.62.29,1.32.43,2.09.43,1.52,0,2.69-.54,3.51-1.62.81-1.08,1.22-2.63,1.22-4.63,0-1.06-.09-1.97-.28-2.73s-.46-1.39-.81-1.87c-.35-.49-.79-.84-1.3-1.07-.51-.23-1.1-.34-1.75-.34-.93,0-1.75.21-2.45.64-.7.43-1.35,1.03-1.94,1.82v7.88Z"/>
    <path class="cls-2" d="M1146.31,112.82v16.29h-1.71c-.41,0-.67-.2-.77-.59l-.23-1.75c-.71.78-1.5,1.41-2.38,1.89-.88.48-1.89.72-3.02.72-.89,0-1.68-.15-2.36-.44-.68-.29-1.25-.71-1.71-1.25s-.81-1.18-1.04-1.95-.35-1.6-.35-2.53v-10.39h2.86v10.39c0,1.23.28,2.19.84,2.86.56.68,1.42,1.01,2.58,1.01.85,0,1.64-.2,2.37-.6s1.41-.96,2.04-1.67v-12h2.86Z"/>
    <path class="cls-2" d="M1153.81,105.42v23.69h-2.86v-23.69h2.86Z"/>
    <path class="cls-2" d="M1167.93,115.51c-.13.24-.33.35-.59.35-.16,0-.34-.06-.55-.18-.2-.12-.45-.25-.75-.39-.3-.15-.65-.28-1.05-.4-.41-.12-.89-.19-1.45-.19-.48,0-.92.06-1.3.19s-.72.29-.99.51c-.27.21-.48.46-.63.75-.15.28-.22.59-.22.92,0,.42.12.77.36,1.04.24.28.56.52.96.72.4.2.85.38,1.35.54.5.16,1.02.32,1.55.5.53.18,1.05.37,1.55.59.5.21.95.48,1.35.8.4.32.72.72.96,1.18.24.47.36,1.03.36,1.68,0,.75-.13,1.45-.4,2.08-.27.64-.67,1.19-1.19,1.66-.53.47-1.17.83-1.93,1.1-.76.27-1.64.4-2.64.4-1.14,0-2.17-.19-3.09-.56-.92-.37-1.71-.84-2.35-1.42l.68-1.09c.09-.14.19-.25.3-.32.12-.08.27-.11.45-.11.19,0,.4.08.61.22.21.15.47.32.78.5.31.18.68.35,1.12.5.44.15.99.22,1.64.22.56,0,1.04-.07,1.46-.22.42-.14.77-.34,1.05-.59.28-.25.49-.53.62-.85.13-.32.2-.67.2-1.03,0-.45-.12-.82-.36-1.12-.24-.29-.56-.55-.96-.76-.4-.21-.85-.39-1.36-.55-.51-.16-1.03-.32-1.56-.49-.53-.17-1.05-.37-1.56-.59s-.96-.5-1.36-.83c-.4-.33-.72-.74-.96-1.23-.24-.49-.36-1.08-.36-1.78,0-.62.13-1.22.39-1.79.26-.57.63-1.08,1.13-1.51.49-.43,1.1-.78,1.82-1.04s1.54-.39,2.46-.39c1.07,0,2.04.17,2.89.51.85.34,1.59.8,2.21,1.39l-.64,1.05Z"/>
    <path class="cls-2" d="M1171.95,115.12c.9-.87,1.87-1.52,2.91-1.95s2.19-.64,3.46-.64c.91,0,1.72.15,2.43.45.71.3,1.3.72,1.79,1.25s.85,1.18,1.09,1.95.37,1.6.37,2.51v10.42h-1.27c-.28,0-.49-.05-.64-.14s-.27-.27-.35-.54l-.32-1.54c-.43.4-.85.75-1.25,1.05-.41.31-.84.56-1.29.77-.45.21-.93.37-1.44.48-.51.11-1.08.17-1.7.17s-1.23-.09-1.79-.27-1.04-.44-1.46-.8c-.41-.35-.74-.8-.98-1.34-.24-.54-.36-1.18-.36-1.92,0-.64.18-1.26.53-1.86.35-.59.93-1.12,1.72-1.58s1.83-.84,3.1-1.13c1.28-.29,2.84-.46,4.7-.51v-1.27c0-1.26-.27-2.22-.82-2.87-.55-.65-1.35-.97-2.4-.97-.71,0-1.3.09-1.78.26-.48.18-.89.38-1.24.6s-.65.42-.9.59c-.25.18-.5.27-.75.27-.19,0-.36-.05-.5-.15-.14-.1-.26-.23-.35-.38l-.52-.92ZM1181.2,121.78c-1.32.04-2.44.15-3.37.31-.93.17-1.68.38-2.27.65-.58.27-1.01.58-1.27.95-.26.37-.39.77-.39,1.22s.07.8.21,1.11c.14.31.33.57.57.76.24.2.53.34.85.43.33.09.68.14,1.05.14.5,0,.97-.05,1.38-.15.42-.1.81-.25,1.18-.44.37-.19.72-.42,1.06-.69s.67-.57.99-.92v-3.38Z"/>
    <path class="cls-2" d="M1201.6,129.37c-1.29,0-2.28-.36-2.97-1.08-.69-.72-1.04-1.75-1.04-3.1v-9.97h-1.96c-.17,0-.32-.05-.43-.15-.12-.1-.18-.26-.18-.47v-1.14l2.67-.34.66-5.04c.03-.16.11-.29.22-.39.11-.1.26-.15.44-.15h1.45v5.61h4.71v2.08h-4.71v9.78c0,.69.17,1.2.5,1.53.33.33.76.5,1.29.5.3,0,.56-.04.78-.12.22-.08.41-.17.57-.27.16-.1.3-.18.41-.26.11-.08.21-.12.3-.12.15,0,.28.09.4.27l.84,1.37c-.49.46-1.09.82-1.79,1.09-.7.26-1.42.39-2.16.39Z"/>
    <path class="cls-2" d="M1221.53,112.82v16.29h-1.71c-.41,0-.67-.2-.77-.59l-.23-1.75c-.71.78-1.5,1.41-2.38,1.89-.88.48-1.89.72-3.02.72-.89,0-1.68-.15-2.36-.44-.68-.29-1.25-.71-1.71-1.25-.46-.54-.81-1.18-1.04-1.95s-.35-1.6-.35-2.53v-10.39h2.86v10.39c0,1.23.28,2.19.84,2.86s1.42,1.01,2.58,1.01c.85,0,1.64-.2,2.37-.6s1.41-.96,2.04-1.67v-12h2.86Z"/>
    <path class="cls-2" d="M1245.82,116.1c-.12.15-.23.27-.35.35-.11.09-.28.13-.49.13s-.4-.06-.59-.19c-.19-.12-.42-.26-.69-.42-.27-.16-.59-.29-.96-.42-.37-.12-.83-.19-1.38-.19-.7,0-1.31.13-1.83.38-.53.25-.96.61-1.31,1.09s-.61,1.04-.78,1.71c-.17.67-.26,1.43-.26,2.28s.09,1.66.28,2.35.46,1.26.81,1.73c.35.47.78.82,1.29,1.06s1.07.36,1.71.36,1.14-.08,1.54-.23c.39-.16.72-.33.99-.52.27-.19.5-.36.7-.51.2-.16.42-.23.67-.23.32,0,.56.12.72.37l1.14,1.45c-.44.51-.92.95-1.43,1.29s-1.05.63-1.6.84-1.12.36-1.71.44-1.17.13-1.75.13c-1.02,0-1.98-.19-2.88-.57-.9-.38-1.69-.94-2.36-1.66-.67-.73-1.21-1.62-1.6-2.68-.39-1.06-.59-2.26-.59-3.61,0-1.21.17-2.33.52-3.37.35-1.03.86-1.93,1.54-2.69.68-.76,1.51-1.35,2.51-1.78,1-.43,2.14-.64,3.44-.64s2.31.2,3.24.59c.93.4,1.76.96,2.5,1.71l-1.04,1.45Z"/>
    <path class="cls-2" d="M1253.25,115.47c.51-.99,1.12-1.76,1.83-2.32.71-.56,1.54-.84,2.51-.84.76,0,1.37.17,1.83.5l-.26,2.98c-.05.19-.13.33-.23.41s-.24.12-.41.12c-.16,0-.4-.03-.72-.08s-.62-.08-.92-.08c-.44,0-.83.06-1.17.19-.34.13-.65.31-.93.55s-.51.53-.72.88c-.21.34-.41.74-.59,1.17v10.17h-3.97v-16.5h2.33c.41,0,.69.07.85.22.16.15.27.41.32.78l.24,1.87Z"/>
    <path class="cls-2" d="M1264.09,121.36c.06.85.21,1.58.45,2.2.24.62.55,1.13.93,1.53.39.4.84.7,1.38.9.53.2,1.12.3,1.76.3s1.2-.08,1.66-.23c.47-.15.88-.32,1.22-.5.35-.18.65-.35.92-.5s.52-.22.76-.22c.33,0,.58.12.74.37l1.14,1.45c-.44.51-.93.95-1.48,1.29s-1.12.63-1.71.84-1.2.36-1.82.44c-.62.09-1.21.13-1.79.13-1.15,0-2.21-.19-3.2-.57-.99-.38-1.85-.94-2.57-1.69-.73-.75-1.3-1.67-1.72-2.77-.42-1.1-.63-2.37-.63-3.82,0-1.13.18-2.19.55-3.18.36-.99.89-1.86,1.57-2.59s1.51-1.32,2.49-1.75c.98-.43,2.09-.64,3.32-.64,1.04,0,2,.17,2.88.5.88.33,1.63.82,2.27,1.46s1.13,1.42,1.49,2.35.54,1.99.54,3.18c0,.6-.06,1-.19,1.21-.13.21-.38.31-.74.31h-10.21ZM1271.67,118.96c0-.51-.07-1-.22-1.46-.15-.46-.36-.86-.65-1.2-.29-.34-.66-.61-1.1-.81-.45-.2-.96-.3-1.55-.3-1.15,0-2.05.33-2.71.98-.66.65-1.08,1.58-1.26,2.78h7.5Z"/>
    <path class="cls-2" d="M1290.04,116.1c-.12.15-.23.27-.35.35-.11.09-.28.13-.49.13s-.4-.06-.59-.19c-.19-.12-.42-.26-.69-.42-.27-.16-.59-.29-.96-.42-.37-.12-.83-.19-1.38-.19-.7,0-1.31.13-1.83.38-.53.25-.96.61-1.31,1.09s-.61,1.04-.78,1.71c-.17.67-.26,1.43-.26,2.28s.09,1.66.28,2.35.46,1.26.81,1.73c.35.47.78.82,1.29,1.06s1.07.36,1.71.36,1.14-.08,1.54-.23c.39-.16.72-.33.99-.52.27-.19.5-.36.7-.51.2-.16.42-.23.67-.23.32,0,.56.12.72.37l1.14,1.45c-.44.51-.92.95-1.43,1.29s-1.05.63-1.6.84-1.12.36-1.71.44-1.17.13-1.75.13c-1.02,0-1.98-.19-2.88-.57-.9-.38-1.69-.94-2.36-1.66-.67-.73-1.21-1.62-1.6-2.68-.39-1.06-.59-2.26-.59-3.61,0-1.21.17-2.33.52-3.37.35-1.03.86-1.93,1.54-2.69.68-.76,1.51-1.35,2.51-1.78,1-.43,2.14-.64,3.44-.64s2.31.2,3.24.59c.93.4,1.76.96,2.5,1.71l-1.04,1.45Z"/>
    <path class="cls-2" d="M1298.38,107.8c0,.34-.07.67-.21.96-.14.3-.32.56-.55.79-.23.23-.5.41-.81.54-.31.13-.64.2-1,.2s-.67-.07-.97-.2c-.3-.13-.57-.31-.8-.54-.23-.22-.41-.49-.54-.79-.13-.3-.2-.62-.2-.96s.07-.69.2-1c.13-.31.31-.58.54-.8.23-.22.49-.4.8-.54.31-.13.63-.2.97-.2s.69.07,1,.2c.31.13.58.31.81.54.23.23.42.49.55.8.14.31.21.64.21,1ZM1297.84,112.61v16.5h-3.99v-16.5h3.99Z"/>
    <path class="cls-2" d="M1301.89,129.12v-16.5h2.43c.52,0,.85.24,1.01.72l.26,1.22c.29-.32.59-.62.91-.88.32-.27.65-.5,1.01-.69s.75-.35,1.16-.46c.41-.11.87-.17,1.36-.17,1.04,0,1.89.28,2.57.84.67.56,1.17,1.31,1.5,2.24.26-.55.58-1.02.97-1.41.38-.39.81-.71,1.27-.96s.95-.43,1.47-.55c.52-.12,1.04-.18,1.57-.18.91,0,1.72.14,2.43.42.71.28,1.3.69,1.79,1.22.48.54.85,1.19,1.1,1.96.25.77.38,1.66.38,2.65v10.5h-3.97v-10.5c0-1.05-.23-1.84-.69-2.37-.46-.53-1.14-.8-2.03-.8-.41,0-.79.07-1.13.21-.35.14-.65.34-.92.6-.26.26-.47.59-.62.99s-.22.85-.22,1.37v10.5h-3.99v-10.5c0-1.1-.22-1.91-.67-2.41-.45-.5-1.1-.76-1.95-.76-.58,0-1.12.14-1.62.43-.5.28-.96.67-1.39,1.17v12.08h-3.97Z"/>
    <path class="cls-2" d="M1333.5,107.8c0,.34-.07.67-.21.96-.14.3-.32.56-.55.79-.23.23-.5.41-.81.54-.31.13-.64.2-1,.2s-.67-.07-.97-.2c-.31-.13-.57-.31-.8-.54s-.4-.49-.54-.79c-.13-.3-.2-.62-.2-.96s.07-.69.2-1c.13-.31.31-.58.54-.8.23-.22.49-.4.8-.54.31-.13.63-.2.97-.2s.69.07,1,.2c.31.13.58.31.81.54.23.23.42.49.55.8.14.31.21.64.21,1ZM1332.95,112.61v16.5h-3.99v-16.5h3.99Z"/>
    <path class="cls-2" d="M1340.06,121.36c.06.85.21,1.58.45,2.2.24.62.55,1.13.93,1.53.39.4.85.7,1.38.9.53.2,1.12.3,1.76.3s1.2-.08,1.67-.23c.47-.15.87-.32,1.22-.5.35-.18.65-.35.92-.5s.52-.22.76-.22c.33,0,.58.12.74.37l1.14,1.45c-.44.51-.93.95-1.48,1.29s-1.12.63-1.71.84-1.2.36-1.82.44-1.21.13-1.79.13c-1.15,0-2.21-.19-3.2-.57-.99-.38-1.84-.94-2.57-1.69s-1.3-1.67-1.72-2.77c-.42-1.1-.63-2.37-.63-3.82,0-1.13.18-2.19.55-3.18.37-.99.89-1.86,1.57-2.59s1.51-1.32,2.49-1.75c.98-.43,2.09-.64,3.32-.64,1.04,0,2,.17,2.88.5.88.33,1.64.82,2.27,1.46s1.13,1.42,1.49,2.35.54,1.99.54,3.18c0,.6-.06,1-.19,1.21-.13.21-.38.31-.74.31h-10.21ZM1347.64,118.96c0-.51-.07-1-.22-1.46s-.36-.86-.65-1.2c-.29-.34-.66-.61-1.1-.81s-.96-.3-1.55-.3c-1.15,0-2.05.33-2.71.98-.66.65-1.08,1.58-1.26,2.78h7.5Z"/>
    <path class="cls-2" d="M1357.9,114.64c.33-.33.68-.64,1.05-.93.37-.28.76-.52,1.17-.72.41-.2.86-.35,1.33-.47.47-.11.99-.17,1.54-.17.9,0,1.7.15,2.4.46.7.31,1.28.73,1.75,1.29.47.55.82,1.21,1.06,1.98s.36,1.61.36,2.53v10.5h-3.97v-10.5c0-1.01-.23-1.79-.69-2.34-.46-.55-1.16-.83-2.11-.83-.69,0-1.33.16-1.93.47-.6.31-1.17.73-1.71,1.27v11.94h-3.97v-16.5h2.43c.51,0,.85.24,1.01.72l.27,1.3Z"/>
    <path class="cls-2" d="M1377.61,129.37c-1.44,0-2.54-.41-3.31-1.21-.77-.81-1.15-1.93-1.15-3.35v-9.22h-1.69c-.21,0-.4-.07-.55-.21-.15-.14-.22-.35-.22-.63v-1.58l2.65-.43.84-4.5c.05-.21.16-.38.31-.5.15-.12.34-.18.58-.18h2.06v5.2h4.41v2.83h-4.41v8.94c0,.51.13.92.38,1.21.25.29.6.43,1.04.43.25,0,.45-.03.62-.09.17-.06.31-.12.43-.18.12-.06.23-.13.33-.19.1-.06.19-.09.29-.09.12,0,.21.03.29.09.07.06.16.15.24.27l1.19,1.93c-.58.48-1.24.85-2,1.09-.75.25-1.53.37-2.33.37Z"/>
    <path class="cls-2" d="M1391.25,112.35c1.22,0,2.34.2,3.34.59,1,.4,1.86.96,2.57,1.69.71.73,1.26,1.62,1.65,2.67.39,1.05.58,2.23.58,3.52s-.19,2.49-.58,3.54c-.39,1.05-.94,1.95-1.65,2.69-.71.74-1.57,1.31-2.57,1.71-1,.4-2.12.59-3.34.59s-2.35-.2-3.36-.59c-1.01-.4-1.87-.97-2.58-1.71-.71-.74-1.27-1.64-1.66-2.69-.39-1.05-.59-2.23-.59-3.54s.2-2.47.59-3.52c.39-1.05.94-1.94,1.66-2.67.71-.73,1.57-1.29,2.58-1.69s2.13-.59,3.36-.59ZM1391.25,126.3c1.37,0,2.39-.46,3.05-1.38s.99-2.27.99-4.05-.33-3.14-.99-4.07c-.66-.93-1.68-1.4-3.05-1.4s-2.43.47-3.1,1.41-1.01,2.29-1.01,4.06.34,3.12,1.01,4.05,1.7,1.39,3.1,1.39Z"/>
    <path class="cls-2" d="M1414.01,114.86c.68-.76,1.44-1.38,2.3-1.85.86-.47,1.87-.71,3.02-.71.9,0,1.72.19,2.47.56.75.38,1.39.92,1.93,1.63.54.71.96,1.59,1.25,2.64s.44,2.24.44,3.59c0,1.23-.17,2.38-.5,3.43s-.81,1.96-1.42,2.73c-.62.77-1.36,1.38-2.24,1.81s-1.85.65-2.94.65c-.92,0-1.71-.14-2.36-.43-.65-.28-1.24-.68-1.75-1.18v6.76h-3.97v-21.89h2.43c.51,0,.85.24,1.01.72l.32,1.53ZM1414.22,124.84c.45.55.94.93,1.47,1.16.53.22,1.11.34,1.73.34s1.14-.11,1.62-.34c.48-.23.89-.57,1.23-1.03.34-.46.6-1.04.78-1.75.18-.7.27-1.53.27-2.49s-.08-1.78-.23-2.45c-.16-.67-.38-1.21-.67-1.63-.29-.42-.64-.72-1.05-.92-.41-.19-.88-.29-1.41-.29-.83,0-1.53.17-2.11.52-.58.35-1.13.84-1.64,1.47v7.4Z"/>
    <path class="cls-2" d="M1432.26,115.47c.51-.99,1.13-1.76,1.83-2.32.71-.56,1.54-.84,2.51-.84.76,0,1.37.17,1.83.5l-.26,2.98c-.05.19-.13.33-.23.41-.1.08-.24.12-.41.12-.16,0-.4-.03-.72-.08s-.62-.08-.92-.08c-.44,0-.83.06-1.17.19-.34.13-.65.31-.92.55s-.51.53-.72.88c-.21.34-.4.74-.59,1.17v10.17h-3.97v-16.5h2.33c.41,0,.69.07.85.22.16.15.27.41.32.78l.24,1.87Z"/>
    <path class="cls-2" d="M1447.35,112.35c1.22,0,2.34.2,3.34.59,1,.4,1.86.96,2.57,1.69.71.73,1.26,1.62,1.65,2.67.39,1.05.58,2.23.58,3.52s-.19,2.49-.58,3.54c-.39,1.05-.94,1.95-1.65,2.69-.71.74-1.57,1.31-2.57,1.71-1,.4-2.12.59-3.34.59s-2.35-.2-3.36-.59c-1.01-.4-1.87-.97-2.58-1.71-.71-.74-1.27-1.64-1.66-2.69-.39-1.05-.59-2.23-.59-3.54s.2-2.47.59-3.52c.39-1.05.94-1.94,1.66-2.67.71-.73,1.57-1.29,2.58-1.69s2.13-.59,3.36-.59ZM1447.35,126.3c1.37,0,2.39-.46,3.05-1.38s.99-2.27.99-4.05-.33-3.14-.99-4.07c-.66-.93-1.68-1.4-3.05-1.4s-2.43.47-3.1,1.41-1.01,2.29-1.01,4.06.34,3.12,1.01,4.05,1.7,1.39,3.1,1.39Z"/>
    <path class="cls-2" d="M1459.29,129.12v-13.51l-1.43-.23c-.31-.06-.56-.17-.75-.33-.19-.16-.28-.38-.28-.67v-1.62h2.46v-1.22c0-.94.14-1.79.43-2.54s.69-1.39,1.22-1.91,1.18-.93,1.94-1.21c.76-.28,1.62-.42,2.57-.42.76,0,1.47.1,2.12.31l-.08,2c-.01.15-.05.27-.13.36-.08.09-.18.16-.3.21-.12.05-.26.08-.43.1-.16.02-.33.02-.51.02-.47,0-.89.05-1.26.15-.37.1-.68.28-.94.53-.26.25-.45.58-.59,1-.13.41-.2.92-.2,1.54v1.09h4.29v2.83h-4.17v13.53h-3.97Z"/>
    <path class="cls-2" d="M1472.29,121.36c.06.85.21,1.58.45,2.2.24.62.55,1.13.93,1.53.39.4.84.7,1.38.9.53.2,1.12.3,1.76.3s1.2-.08,1.67-.23c.47-.15.87-.32,1.22-.5s.65-.35.92-.5c.26-.15.52-.22.76-.22.33,0,.58.12.74.37l1.14,1.45c-.44.51-.93.95-1.48,1.29s-1.12.63-1.71.84c-.6.21-1.2.36-1.82.44-.62.09-1.21.13-1.79.13-1.15,0-2.21-.19-3.2-.57-.99-.38-1.84-.94-2.57-1.69-.73-.75-1.3-1.67-1.72-2.77-.42-1.1-.63-2.37-.63-3.82,0-1.13.18-2.19.55-3.18.36-.99.89-1.86,1.57-2.59.68-.73,1.51-1.32,2.49-1.75.98-.43,2.09-.64,3.32-.64,1.04,0,2,.17,2.88.5.88.33,1.64.82,2.27,1.46s1.13,1.42,1.49,2.35.54,1.99.54,3.18c0,.6-.06,1-.19,1.21-.13.21-.38.31-.74.31h-10.21ZM1479.86,118.96c0-.51-.07-1-.22-1.46-.15-.46-.36-.86-.65-1.2-.29-.34-.66-.61-1.1-.81s-.96-.3-1.55-.3c-1.15,0-2.05.33-2.71.98s-1.08,1.58-1.26,2.78h7.5Z"/>
    <path class="cls-2" d="M1496.48,115.83c-.11.17-.22.29-.34.36-.12.07-.27.1-.45.1-.19,0-.4-.05-.62-.16-.22-.11-.47-.23-.76-.36s-.62-.25-.99-.36c-.37-.11-.81-.16-1.31-.16-.78,0-1.4.17-1.84.5-.45.33-.67.77-.67,1.3,0,.35.12.65.35.89.23.24.54.45.92.64s.81.35,1.29.49c.48.15.97.3,1.47.47.5.17.99.37,1.47.59.48.22.91.5,1.29.84.38.34.69.74.92,1.21s.35,1.04.35,1.71c0,.79-.14,1.53-.43,2.2-.28.67-.71,1.25-1.26,1.74s-1.25.87-2.07,1.14-1.77.41-2.84.41c-.57,0-1.12-.05-1.67-.15s-1.06-.24-1.56-.43c-.5-.18-.96-.4-1.38-.64-.42-.25-.8-.51-1.12-.8l.92-1.51c.12-.18.26-.32.42-.42.16-.1.37-.15.61-.15s.48.07.7.21c.22.14.47.29.76.45.29.16.63.31,1.02.45s.89.21,1.49.21c.47,0,.88-.06,1.21-.17s.62-.26.84-.44.38-.39.48-.64c.1-.24.15-.49.15-.75,0-.39-.12-.7-.35-.95-.23-.25-.54-.46-.92-.64s-.81-.35-1.3-.49c-.49-.14-.99-.3-1.5-.47-.51-.17-1.01-.37-1.5-.6s-.92-.52-1.3-.88-.69-.79-.92-1.3c-.23-.51-.35-1.14-.35-1.87,0-.68.13-1.32.4-1.93s.66-1.14,1.18-1.6c.52-.46,1.17-.82,1.95-1.09.78-.27,1.67-.41,2.69-.41,1.14,0,2.17.19,3.1.56.93.38,1.71.87,2.33,1.48l-.9,1.43Z"/>
    <path class="cls-2" d="M1505.21,107.8c0,.34-.07.67-.21.96-.14.3-.32.56-.55.79-.23.23-.5.41-.81.54-.31.13-.64.2-1,.2s-.67-.07-.97-.2c-.31-.13-.57-.31-.8-.54-.22-.22-.4-.49-.54-.79-.13-.3-.2-.62-.2-.96s.07-.69.2-1c.13-.31.31-.58.54-.8.22-.22.49-.4.8-.54.3-.13.63-.2.97-.2s.69.07,1,.2c.31.13.58.31.81.54.23.23.42.49.55.8.14.31.21.64.21,1ZM1504.67,112.61v16.5h-3.99v-16.5h3.99Z"/>
    <path class="cls-2" d="M1516.02,112.35c1.22,0,2.33.2,3.34.59,1,.4,1.86.96,2.57,1.69.71.73,1.26,1.62,1.65,2.67.38,1.05.58,2.23.58,3.52s-.19,2.49-.58,3.54c-.39,1.05-.94,1.95-1.65,2.69-.71.74-1.57,1.31-2.57,1.71-1,.4-2.12.59-3.34.59s-2.35-.2-3.36-.59c-1.01-.4-1.87-.97-2.58-1.71-.71-.74-1.27-1.64-1.66-2.69s-.59-2.23-.59-3.54.2-2.47.59-3.52.94-1.94,1.66-2.67c.71-.73,1.57-1.29,2.58-1.69s2.13-.59,3.36-.59ZM1516.02,126.3c1.37,0,2.39-.46,3.05-1.38s.99-2.27.99-4.05-.33-3.14-.99-4.07c-.66-.93-1.68-1.4-3.05-1.4s-2.43.47-3.1,1.41c-.67.94-1,2.29-1,4.06s.33,3.12,1,4.05c.67.93,1.7,1.39,3.1,1.39Z"/>
    <path class="cls-2" d="M1530.92,114.64c.33-.33.68-.64,1.05-.93.37-.28.76-.52,1.17-.72.41-.2.86-.35,1.33-.47.47-.11.99-.17,1.54-.17.9,0,1.7.15,2.4.46s1.28.73,1.75,1.29c.47.55.82,1.21,1.06,1.98.24.77.36,1.61.36,2.53v10.5h-3.97v-10.5c0-1.01-.23-1.79-.69-2.34-.46-.55-1.16-.83-2.11-.83-.69,0-1.33.16-1.93.47-.6.31-1.17.73-1.71,1.27v11.94h-3.97v-16.5h2.43c.51,0,.85.24,1.01.72l.27,1.3Z"/>
    <path class="cls-2" d="M1544.96,114.91c1.9-1.74,4.18-2.61,6.85-2.61.97,0,1.83.16,2.59.47.76.32,1.41.76,1.93,1.32.53.56.92,1.24,1.2,2.02s.41,1.64.41,2.57v10.42h-1.8c-.38,0-.67-.06-.87-.17-.2-.11-.36-.34-.48-.68l-.35-1.19c-.42.38-.83.71-1.22.99s-.81.52-1.24.72c-.43.19-.89.34-1.38.44-.49.1-1.03.15-1.62.15-.7,0-1.34-.09-1.93-.28s-1.1-.47-1.53-.84c-.43-.38-.76-.84-1-1.4-.24-.56-.35-1.21-.35-1.95,0-.42.07-.83.21-1.25s.37-.81.68-1.18c.32-.38.73-.73,1.23-1.06.5-.33,1.12-.62,1.86-.87.73-.25,1.59-.45,2.57-.6s2.09-.25,3.35-.28v-.97c0-1.1-.24-1.92-.71-2.45-.47-.53-1.15-.8-2.04-.8-.64,0-1.18.08-1.6.23s-.8.32-1.12.51-.61.36-.88.51c-.26.15-.55.23-.88.23-.28,0-.52-.07-.71-.22-.19-.15-.35-.31-.47-.51l-.71-1.27ZM1554.06,122.07c-1.15.05-2.11.15-2.9.3s-1.41.33-1.88.55c-.47.23-.81.49-1.01.79-.21.3-.31.63-.31.98,0,.7.21,1.2.62,1.5.41.3.95.45,1.62.45.81,0,1.52-.15,2.12-.44.6-.29,1.18-.74,1.75-1.34v-2.78Z"/>
    <path class="cls-2" d="M1565.69,105.21v23.9h-3.97v-23.9h3.97Z"/>
    <path class="cls-2" d="M1569.09,126.93c0-.33.06-.65.18-.95.12-.3.29-.56.51-.77s.47-.39.77-.51c.3-.13.62-.19.96-.19s.66.06.96.19c.29.13.55.3.77.51.22.21.39.47.52.77.13.3.19.62.19.95s-.06.66-.19.96-.3.55-.52.76c-.22.21-.48.38-.77.51s-.61.19-.96.19-.66-.06-.96-.19-.56-.29-.77-.51c-.21-.21-.38-.47-.51-.76s-.18-.61-.18-.96Z"/>
  </g>
</svg>