<?xml version="1.0" encoding="UTF-8"?>
<svg id="Capa_1" data-name="Capa 1" xmlns="http://www.w3.org/2000/svg" version="1.1" viewBox="0 0 20 20">
  <defs>
    <style>
      .cls-1 {
        fill: #000;
        fill-rule: evenodd;
        stroke-width: 0px;
      }
    </style>
  </defs>
  <path class="cls-1" d="M7.84,10.06v8.05c0,.12.09.21.21.21h2.99c.12,0,.21-.09.21-.21v-8.18h2.17c.11,0,.2-.08.21-.19l.21-2.46c.01-.12-.09-.23-.21-.23h-2.37v-1.75c0-.41.33-.74.74-.74h1.67c.12,0,.21-.09.21-.21V1.89c0-.12-.09-.21-.21-.21h-2.82c-1.66,0-3,1.34-3,3v2.37h-1.49c-.12,0-.21.09-.21.21v2.46c0,.12.09.21.21.21h1.49v.13Z"/>
</svg>