<?xml version="1.0" encoding="UTF-8"?>
<svg id="Capa_1" data-name="Capa 1" xmlns="http://www.w3.org/2000/svg" version="1.1" viewBox="0 0 20 20">
  <defs>
    <style>
      .cls-1 {
        fill: #000;
        stroke-width: 0px;
      }
    </style>
  </defs>
  <path class="cls-1" d="M14.5,4.6c-.55,0-1,.45-1,1.01s.45,1.01,1,1.01,1.01-.45,1.01-1.01-.45-1.01-1.01-1.01M10.03,5.89c-2.33,0-4.22,1.89-4.22,4.22s1.89,4.22,4.22,4.22,4.22-1.89,4.22-4.22-1.89-4.22-4.22-4.22M10.03,12.82c-1.49,0-2.7-1.21-2.7-2.71s1.21-2.7,2.7-2.7,2.71,1.21,2.71,2.7-1.21,2.71-2.71,2.71M18.55,6.6c0-2.84-2.3-5.15-5.15-5.15h-6.8C3.76,1.45,1.45,3.76,1.45,6.6v6.8c0,2.84,2.31,5.15,5.15,5.15h6.8c2.85,0,5.15-2.31,5.15-5.15v-6.8ZM16.94,13.4c0,1.95-1.58,3.54-3.54,3.54h-6.8c-1.95,0-3.54-1.58-3.54-3.54v-6.8c0-1.95,1.58-3.54,3.54-3.54h6.8c1.95,0,3.54,1.58,3.54,3.54v6.8Z"/>
</svg>