<?xml version="1.0" encoding="UTF-8"?>
<svg id="Capa_1" data-name="Capa 1" xmlns="http://www.w3.org/2000/svg" version="1.1" xmlns:xlink="http://www.w3.org/1999/xlink" viewBox="0 0 200 220">
  <defs>
    <style>
      .cls-1 {
        fill: url(#linear-gradient);
      }

      .cls-1, .cls-2, .cls-3 {
        stroke-width: 0px;
      }

      .cls-2 {
        fill: none;
      }

      .cls-4 {
        clip-path: url(#clippath);
      }

      .cls-3 {
        fill: #fff;
      }
    </style>
    <clipPath id="clippath">
      <polygon class="cls-2" points="0 0 0 166.33 103.49 220 200 166.33 200 0 0 0"/>
    </clipPath>
    <linearGradient id="linear-gradient" x1="-859.01" y1="3534.26" x2="-858" y2="3534.26" gradientTransform="translate(171127.66 704190.89) scale(199.22 -199.22)" gradientUnits="userSpaceOnUse">
      <stop offset="0" stop-color="#e10613"/>
      <stop offset=".14" stop-color="#e10c15"/>
      <stop offset=".33" stop-color="#e31e1c"/>
      <stop offset=".51" stop-color="#e53626"/>
      <stop offset=".54" stop-color="#e42f23"/>
      <stop offset=".7" stop-color="#e2181a"/>
      <stop offset=".85" stop-color="#e10a14"/>
      <stop offset=".98" stop-color="#e10613"/>
      <stop offset="1" stop-color="#e10613"/>
    </linearGradient>
  </defs>
  <g class="cls-4">
    <rect class="cls-1" y="0" width="200" height="220"/>
  </g>
  <g>
    <path class="cls-3" d="M170.95,162.91h0s-.05-.75-.05-.75c-.02-.33-.07-.57-.16-.72-.09-.15-.24-.25-.45-.32.24-.09.42-.24.55-.45.13-.21.19-.46.19-.75,0-.45-.13-.8-.39-1.06-.26-.26-.62-.38-1.08-.38,0,0-.02,0-.05,0-.08,0-.16,0-.23,0h-2.23v5.19h.85v-2.14h1.31c.29,0,.49.06.61.17.12.11.19.33.21.67l.03.62c0,.2.02.35.04.44.02.09.05.17.09.24h.97v-.15c-.13-.07-.2-.27-.22-.59M169.92,160.6c-.16.13-.42.19-.78.19h-1.24v-1.6h1.26c.35,0,.61.06.76.19.15.13.23.33.23.6s-.08.49-.24.61"/>
    <g>
      <path class="cls-3" d="M105.17,100.39c-.59-3.09-9.32-9.72-11.68-6.1-2.36,3.62,8.87,6.84,11.68,6.1"/>
      <path class="cls-3" d="M61.87,75.79l-18.36-11.33c1.27-2.26,2.66-4.42,4.18-6.49l9.16,3.25-7.07-5.96c1.52-1.85,3.14-3.62,4.84-5.29l14.86,15.81c-1.32,1.28-2.58,2.67-3.73,4.12l-8.26-3.3,6.84,5.22c-.89,1.27-1.71,2.58-2.46,3.95M35.92,84.84l21.63,4.02c.58-3.81,1.7-7.44,3.27-10.82l-19.23-10.51c-1.13,2.24-2.12,4.57-2.97,6.96l15.35,5.27-1.16,3.42-15.3-5.34c-.67,2.28-1.2,4.62-1.6,7M57.71,47.36l13.74,16.76c1.52-1.31,3.15-2.5,4.86-3.59l-12.71-17.51c-2.05,1.34-4.01,2.79-5.89,4.34M68.48,40.14l9.14,19.6c3.45-2,7.21-3.54,11.21-4.52l-1.72-5.15-6.73,2.27-5.29-15.24c-2.27.9-4.47,1.91-6.6,3.04M86.7,33.72l3.5,21.19c2.88-.61,5.87-.93,8.93-.93,1.1,0,2.17.04,3.24.12l-.21-5.46c-2.33-.05-4.71-.05-7.34.1l-.94-15.99c-2.43.19-4.82.52-7.18.97M111.43,39.09l-.8,5.25,4.82,1.36,1.69-5.1-5.71-1.51ZM103.98,54.27l2.09-21.36c6.78.65,12.65,2.27,18.65,4.82l-8.33,19.75c-1.27-.55-3-1.04-4.33-1.46l1.87-5.13-4.25-1.26-.85,5.39c-1.64-.37-3.15-.58-4.85-.75M117.85,58.26l10.39-18.9c2.32,1.16,4.55,2.44,6.69,3.85l-2.78,9.31,5.6-7.35c1.92,1.42,3.77,2.95,5.53,4.57l-15.06,15.62c-1.35-1.26-2.79-2.44-4.31-3.52l2.88-8.41-4.87,7.08c-1.31-.83-2.67-1.58-4.07-2.26M136.89,66.25l8.02-6.3,2.72,3.44-8.94,5.21-1.8-2.35ZM136.17,75.54l18.88-10.94c-2.69-4.5-6.01-9.1-9.72-12.8l-15.74,14.9c2.57,2.64,4.8,5.61,6.58,8.84M142.08,74.72l3.03,8.45,2.5-1.32-3-8.42,11.65-6.69c2.96,5.67,5.15,11.62,6.22,18.12l-5.31,1.05-3.12-10.95-2.38,1.17,2.16,10.21-13.09,2.78c-.63-4.31-1.95-8.39-3.84-12.16l5.18-2.22Z"/>
      <path class="cls-3" d="M89.31,148.25c1.67-5.53-.21-8.12-3.41-11.88-7.08-8.31-20.86-24.51-18.85-35.15,1.12-5.91,3.4-10.79,7.57-14.18,4.12-3.33,9.93-5.09,18.12-4.76,14.24.58,21.37,11.76,23.15,14.97l40.97,20.62c1.29.64,2.38,2.41,1.76,3.78-.64,1.37-2.25,1.47-3.39,1.24l-46.86-9.16c-3,1.24-5.05,1.91-8.15,1.93-3.1.01-5.47-1.11-7.56-2.27,7.37,6.88,13.99,15.76,14.47,21.68,2.31,11.36.51,24.75,16.41,25.39,8.75.35,17.04-6.6,23.19-12.27,13.11-12.11,21.6-29.23,22.33-48.49.73-19.26-6.41-37.01-18.55-50.14-12.16-13.15-29.36-21.67-48.67-22.45-19.32-.78-37.1,6.34-50.24,18.47-13.11,12.11-21.59,29.23-22.33,48.49-.74,19.26,6.41,37.01,18.55,50.13,5.19,5.6,11.28,10.36,18.06,14.04,9.85,5.35,20.27.44,23.43-10M102.04,21.76c20.72.83,39.17,9.99,52.24,24.12,13.09,14.15,20.79,33.28,20,54.03-.8,20.74-9.94,39.19-24.07,52.25-5.95,5.49-15.06,12.66-21.5,13.33-23.21,2.44-23.41-11.92-25.91-29.32-.54-7.46-10.82-17.18-14.18-21.02-3.36-3.84.51-7.39,3.61-6.51,3.1.87,3.8,2.48,7.62,2.85,3.82.37,6.4-.59,8.87-2.13l44.16,10.08-39.94-17.74c-.55-.25-1.01-.68-1.29-1.27-.02-.04-5.63-12.27-19.11-12.81-6.85-.28-11.55,1.05-14.68,3.6-3.08,2.49-4.79,6.29-5.68,10.98-1.53,8.11,11.15,23,17.65,30.64,4.36,5.13,6.67,9.69,4.47,16.98-4.75,15.72-20.6,19.71-33.57,11.59-6.19-3.7-11.8-8.28-16.67-13.53-13.09-14.15-20.79-33.28-19.99-54.03.8-20.74,9.93-39.2,24.06-52.25,14.11-13.04,33.21-20.68,53.92-19.85"/>
      <path class="cls-3" d="M169.11,156.37c-2.59,0-4.7,2.11-4.7,4.7s2.11,4.7,4.7,4.7,4.69-2.11,4.69-4.7-2.11-4.7-4.69-4.7M169.11,165.16c-2.26,0-4.1-1.84-4.1-4.09s1.84-4.09,4.1-4.09,4.09,1.83,4.09,4.09-1.84,4.09-4.09,4.09"/>
    </g>
  </g>
</svg>