<?xml version="1.0" encoding="UTF-8"?>
<svg id="Capa_1" data-name="Capa 1" xmlns="http://www.w3.org/2000/svg" version="1.1" viewBox="0 0 44 90">
  <defs>
    <style>
      .cls-1, .cls-2, .cls-3, .cls-4 {
        stroke: #333;
        stroke-width: 2px;
      }

      .cls-1, .cls-2, .cls-4 {
        fill: none;
      }

      .cls-1, .cls-3 {
        stroke-miterlimit: 10;
      }

      .cls-2 {
        opacity: .5;
      }

      .cls-2, .cls-4 {
        stroke-linecap: round;
        stroke-linejoin: round;
      }

      .cls-3 {
        fill: #fff;
      }
    </style>
  </defs>
  <path class="cls-1" d="M21.96,63.15h0c-10.54,0-19.08-8.54-19.08-19.08v-23.94C2.88,9.59,11.42,1.05,21.96,1.05s19.08,8.54,19.08,19.08v23.94c0,10.54-8.54,19.08-19.08,19.08Z"/>
  <line class="cls-4" x1="21.96" y1="1.05" x2="21.96" y2="31.73"/>
  <path class="cls-3" d="M21.96,24.24h0c-1.45,0-2.62-1.17-2.62-2.62v-10.47c0-1.45,1.17-2.62,2.62-2.62s2.62,1.17,2.62,2.62v10.47c0,1.45-1.17,2.62-2.62,2.62"/>
  <polyline class="cls-4" points="9.46 67.61 21.96 78.06 34.46 67.61"/>
  <polyline class="cls-2" points="9.46 77.61 21.96 88.06 34.46 77.61"/>
</svg>