<?xml version="1.0" encoding="UTF-8"?>
<svg id="Capa_1" data-name="Capa 1" xmlns="http://www.w3.org/2000/svg" version="1.1" viewBox="0 0 20 20">
  <defs>
    <style>
      .cls-1 {
        fill: #000;
        stroke-width: 0px;
      }
    </style>
  </defs>
  <path class="cls-1" d="M111.8,8.14c0-1.97-1.6-3.57-3.56-3.57h-9.25c-1.97,0-3.56,1.6-3.56,3.57v4.33c0,1.97,1.6,3.57,3.56,3.57h9.25c1.97,0,3.56-1.6,3.56-3.57v-4.33ZM105.97,10.53l-3.69,2.02c-.16.09-.3-.03-.3-.21v-4.15c0-.18.15-.3.31-.21l3.71,2.13c.16.09.14.33-.03.42"/>
  <path class="cls-1" d="M76.95,5.17c-.55,0-1,.45-1,1.01s.45,1.01,1,1.01,1.01-.45,1.01-1.01-.45-1.01-1.01-1.01M72.48,6.46c-2.33,0-4.22,1.89-4.22,4.22s1.89,4.22,4.22,4.22,4.22-1.89,4.22-4.22-1.89-4.22-4.22-4.22M72.48,13.39c-1.49,0-2.7-1.21-2.7-2.71s1.21-2.7,2.7-2.7,2.71,1.21,2.71,2.7-1.21,2.71-2.71,2.71M81,7.17c0-2.84-2.3-5.15-5.15-5.15h-6.8c-2.85,0-5.15,2.31-5.15,5.15v6.8c0,2.84,2.31,5.15,5.15,5.15h6.8c2.85,0,5.15-2.31,5.15-5.15v-6.8ZM79.38,13.97c0,1.95-1.58,3.54-3.54,3.54h-6.8c-1.95,0-3.54-1.58-3.54-3.54v-6.8c0-1.95,1.58-3.54,3.54-3.54h6.8c1.95,0,3.54,1.58,3.54,3.54v6.8Z"/>
  <path class="cls-1" d="M14,16.38h1.45L6.07,3.54h-1.56l9.48,12.84ZM14.92,2h2.62l-5.73,6.78,6.74,9.22h-5.28l-4.13-5.59-4.73,5.59H1.79l6.13-7.25L1.45,2h5.41l3.73,5.11,4.32-5.11Z"/>
</svg>